<svg width="91" height="91" viewBox="0 0 91 91" fill="none" xmlns="http://www.w3.org/2000/svg">
<g clip-path="url(#clip0_109_16)">
<path d="M45.5 91C70.629 91 91 70.629 91 45.5C91 20.371 70.629 0 45.5 0C20.371 0 0 20.371 0 45.5C0 70.629 20.371 91 45.5 91Z" fill="#FFCC4D"/>
<path d="M36.2469 30.2722C36.1028 30.2172 35.9534 29.996 35.7985 29.6087C35.6655 29.2545 35.5104 29.0829 35.3331 29.0939C35.3222 29.1373 35.3167 29.1819 35.3165 29.2266C35.3165 29.293 35.3996 29.5034 35.5658 29.858C35.6654 30.0791 35.6101 30.2341 35.4 30.3229C34.9677 30.3229 34.7239 30.3284 34.6686 30.3395C34.6246 30.3177 34.5468 30.2125 34.4364 30.0243C34.3362 29.8695 34.2476 29.7919 34.1705 29.7916C34.1218 29.7931 34.075 29.8106 34.0373 29.8414C33.9046 29.708 33.7801 29.4755 33.6638 29.1437C33.5476 28.8119 33.4284 28.5849 33.3065 28.4626C33.2774 28.4418 33.2427 28.4302 33.2069 28.4295C33.1069 28.4295 33.0795 28.529 33.1235 28.728C33.1573 28.8503 33.2904 29.1107 33.5226 29.5091C33.7122 29.8191 33.7841 30.0738 33.7383 30.2731C33.716 30.3509 33.6776 30.4627 33.6221 30.6049C33.6385 30.6872 33.6496 30.7705 33.6553 30.8542C33.5668 30.7879 33.472 30.6106 33.3709 30.3224C33.2825 30.0678 33.1551 29.9183 32.9889 29.8741C32.9558 29.9293 32.9385 29.9926 32.9392 30.057C32.9392 30.1455 33.0223 30.3447 33.1885 30.6547C33.3319 30.9204 33.3596 31.1198 33.2714 31.2528C33.205 31.2212 33.1103 31.1106 32.987 30.9211C32.8986 30.7776 32.7933 30.7057 32.6714 30.7054C32.6493 30.6277 32.5469 30.5612 32.3642 30.5059C32.1813 30.4504 32.0898 30.3897 32.0898 30.3229C32.0955 30.2542 32.125 30.1897 32.1732 30.1404C32.1843 30.0409 32.1317 29.9689 32.0154 29.9243C31.8991 29.8798 31.8408 29.83 31.8405 29.775C31.8425 29.7341 31.854 29.6941 31.8742 29.6584C31.7408 29.6584 31.6411 29.581 31.5751 29.4262C31.5306 29.3042 31.4862 29.1767 31.4419 29.0437C31.5083 28.9224 31.5193 28.8505 31.4751 28.828C31.3785 28.8009 31.292 28.746 31.2263 28.6702C31.1485 28.5873 31.0708 28.5067 30.9936 28.4295C31.0046 28.3185 30.9326 28.2238 30.7774 28.1451C30.6223 28.0664 30.5275 27.9833 30.4931 27.8958C30.5148 27.843 30.526 27.7865 30.5262 27.7294C30.5262 27.6413 30.4654 27.5465 30.3438 27.445C30.2215 27.3455 30.1608 27.2517 30.1608 27.1607C30.1631 27.1038 30.1743 27.0477 30.194 26.9943C30.1632 26.9766 30.1397 26.9486 30.1275 26.9152C30.1154 26.8818 30.1154 26.8452 30.1276 26.8118C30.1387 26.8011 30.0889 26.7567 29.9783 26.6786C29.8674 26.6014 29.7731 26.4459 29.694 26.2137C29.6494 26.0364 29.5995 25.8592 29.5442 25.6819C29.6442 25.6378 29.6826 25.5549 29.6608 25.4326C29.5499 25.3776 29.4584 25.2392 29.3864 25.0174C29.3143 24.7956 29.2064 24.6572 29.0627 24.6022C28.9517 24.6338 28.8355 24.667 28.7138 24.7018C28.6596 24.7132 28.6087 24.7372 28.5654 24.7719C28.5221 24.8065 28.4876 24.8509 28.4645 24.9013C28.4421 26.3191 28.3979 28.4454 28.3318 31.2803C28.0436 31.358 27.9217 31.3969 27.9659 31.3969C27.7887 31.3969 27.7002 31.264 27.7005 30.9983V30.5329C27.6891 30.3777 27.606 30.2891 27.4512 30.267C27.4398 30.3002 27.4289 30.3395 27.418 30.3836C27.4258 30.5009 27.4146 30.6187 27.3848 30.7324C27.36 30.6748 27.3487 30.6122 27.3517 30.5495C27.3517 30.1842 27.3572 30.0458 27.3683 30.1343C27.3455 29.9921 27.2573 29.9129 27.1024 29.9016C27.0798 29.8542 27.0639 29.804 27.055 29.7523C27.0436 29.7298 27.0381 29.5415 27.0384 29.1873C27.0494 28.9661 26.994 28.8055 26.872 28.7053C26.7704 28.8451 26.7179 29.0146 26.7227 29.1873C26.7227 29.2319 26.7336 29.3698 26.7559 29.6025C26.7781 29.7344 26.7781 29.8692 26.7559 30.0011C26.787 30.063 26.8032 30.1313 26.8033 30.2006C26.8033 30.3002 26.7478 30.4376 26.6369 30.6158C26.526 30.794 26.4597 30.9206 26.4379 30.9983V31.2827C26.4379 31.3936 26.3935 31.449 26.3047 31.449H26.0559L25.989 31.2495C25.9665 31.0787 25.9665 30.9056 25.989 30.7348C26.0115 30.4466 26.0225 30.2694 26.0222 30.203C26.0286 30.0152 25.9947 29.8282 25.9227 29.6546C25.7677 29.6769 25.69 29.7769 25.69 29.9537C25.69 29.9983 25.6957 30.076 25.7066 30.1864C25.7178 30.2525 25.7178 30.3199 25.7066 30.3859C25.7013 30.4074 25.6881 30.4262 25.6697 30.4385C25.6513 30.4507 25.6289 30.4557 25.607 30.4523C25.5611 30.4494 25.5162 30.4381 25.4743 30.4191C25.408 30.5518 25.3686 30.7348 25.3577 30.967C25.347 31.277 25.3359 31.4598 25.3245 31.5154C25.2582 31.5154 25.1752 31.4656 25.0757 31.3661C24.9762 31.2666 24.9041 31.2166 24.8596 31.2163C24.8043 31.2163 24.7488 31.2662 24.6932 31.3661C24.6046 31.1443 24.4885 31.023 24.3444 31.0007C24.3665 30.8688 24.3776 30.7353 24.3776 30.6016C24.3776 30.3915 24.3417 30.0842 24.27 29.6798C24.1983 29.2753 24.1656 28.9745 24.1719 28.7773C24.1713 28.6602 24.1824 28.5434 24.2051 28.4285C24.3946 28.2844 24.3946 28.1403 24.2051 27.9963C24.2269 27.9299 24.2379 27.7245 24.2382 27.3801C24.2382 27.1254 24.3047 26.9539 24.4378 26.8654V25.7535C24.4378 25.2884 24.3602 24.9395 24.2051 24.707C24.3046 24.4858 24.3544 24.2144 24.3544 23.8927C24.3544 23.7714 24.3433 23.5502 24.3212 23.2292C24.2911 23.0094 24.28 22.7874 24.288 22.5656C24.1771 22.4108 24.166 22.2282 24.2548 22.0177C24.4207 21.9387 24.5037 21.7721 24.5037 21.5177C24.5037 21.5954 24.4815 21.3961 24.4373 20.9196C24.4591 20.5654 24.4313 20.0338 24.3539 19.3247C24.3312 19.2551 24.32 19.1823 24.3207 19.1091C24.3207 18.9874 24.3762 18.7936 24.4871 18.5275C24.5866 18.3063 24.6024 18.1235 24.5345 17.9791C24.6231 17.9905 24.7307 18.0483 24.8582 18.1536C24.941 18.2285 25.0332 18.2922 25.1326 18.3431C25.1277 18.3643 25.1175 18.3838 25.1029 18.3998C25.0883 18.4158 25.0698 18.4278 25.0492 18.4346C25.0295 18.4403 25.0123 18.4524 25.0003 18.469C24.9883 18.4855 24.9821 18.5056 24.9828 18.5261C24.9828 18.6588 24.9746 18.8914 24.9582 19.2238C24.9417 19.5562 24.9334 19.8108 24.9331 19.9878C24.9331 20.5196 24.9996 20.9404 25.1326 21.2504C25.2208 21.2172 25.2653 21.1675 25.2653 21.1011C25.2653 19.628 25.2764 18.7531 25.2985 18.4763C25.3427 18.5202 25.3704 18.8857 25.3814 19.5726C25.3925 20.3812 25.398 20.7965 25.398 20.8186C25.4426 20.7965 25.5312 20.7854 25.6639 20.7854C25.7119 20.7808 25.7576 20.7627 25.7959 20.7333C25.8341 20.7039 25.8633 20.6643 25.88 20.6191C25.8579 20.353 25.8829 19.9655 25.9549 19.4565C26.027 18.9474 26.0518 18.5653 26.0293 18.31C26.2189 18.2547 26.3137 18.3378 26.3137 18.5593C26.3469 19.7445 26.3469 20.4532 26.3137 20.6854C26.3469 20.7964 26.4137 20.8518 26.5132 20.8518C26.6017 20.8518 26.6515 20.7964 26.6625 20.6854C26.6515 20.5088 26.6404 20.2486 26.6294 19.9048C26.6294 19.816 26.6516 19.5558 26.6962 19.1242C26.7269 18.8651 26.738 18.604 26.7294 18.3431C26.8507 18.2768 26.9189 18.3379 26.9284 18.5261C26.9284 18.6149 26.9229 18.7367 26.9118 18.8915C26.9009 19.0811 26.8952 19.2072 26.8952 19.2735C26.8952 20.2925 26.8897 20.9017 26.8787 21.1011C26.9118 21.212 26.9891 21.2286 27.1114 21.1485C27.1445 21.1169 27.1722 21.0366 27.1943 20.9077C27.2166 20.7802 27.2417 20.7181 27.2773 20.7181C27.3082 20.736 27.3363 20.7583 27.3607 20.7845C27.4046 20.7734 27.4544 20.7069 27.51 20.585C27.51 19.7107 27.5321 19.1072 27.5763 18.7744H27.6763C27.7107 19.0221 27.7163 19.2729 27.6929 19.5219C27.6597 19.9428 27.643 20.1919 27.6427 20.2693C27.7095 20.3584 27.7645 20.3916 27.809 20.3693C27.9193 20.1797 27.9803 19.8889 27.992 19.4968C28.0037 19.1046 28.0416 18.8312 28.1057 18.6763C28.4489 18.5547 28.6317 18.588 28.6541 18.7763C28.6623 19.0094 28.6511 19.2428 28.6205 19.474C28.5765 19.9164 28.5544 20.1489 28.5541 20.1717C28.477 21.2346 28.4494 22.1983 28.4712 23.0628C28.6146 23.1737 28.7252 23.2014 28.8029 23.1458C28.9356 23.0462 29.3123 22.6587 29.9328 21.9831C30.4972 21.3073 31.361 20.3049 32.5244 18.9759C32.6126 18.9982 32.7264 18.9759 32.8647 18.9095C33.0031 18.8432 33.1164 18.8209 33.2055 18.8432C33.3273 18.7432 33.4544 18.6413 33.5875 18.5356C33.6494 18.4847 33.7213 18.4473 33.7985 18.4258C33.8757 18.4043 33.9566 18.3993 34.0359 18.4109C34.0043 18.5111 34.0624 18.5997 34.2103 18.6768C34.3582 18.7539 34.4331 18.8259 34.435 18.8929C34.435 18.9482 34.2577 19.1808 33.9032 19.5906C33.7699 19.7347 33.3932 20.078 32.7733 20.6205C32.2971 21.0313 31.9653 21.4134 31.778 21.767C31.911 22.1437 32.0058 22.3817 32.0623 22.4813C32.1954 22.7473 32.3671 22.9191 32.5775 22.9965C32.6663 23.2176 32.8324 23.5415 33.0757 23.9681C33.319 24.3946 33.4852 24.7297 33.5743 24.9733C33.5743 25.2726 33.6574 25.4386 33.8236 25.4715C33.8785 25.7821 34.0114 26.0091 34.2222 26.1526C34.2885 26.4075 34.4269 26.6956 34.6374 27.0166C34.8036 27.2716 34.9753 27.5319 35.1525 27.7977C35.7494 28.8382 36.1142 29.663 36.2469 30.2722ZM27.5261 25.3217C27.4708 25.2664 27.4043 25.2664 27.3265 25.3217C27.2494 25.6987 27.2607 25.9699 27.3602 26.1355C27.5036 26.1355 27.5755 26.0691 27.5758 25.9364C27.5659 25.8304 27.55 25.725 27.5285 25.6208C27.5045 25.5227 27.5033 25.4203 27.5251 25.3217H27.5261ZM27.609 24.0093C27.5916 24.0026 27.5763 23.9914 27.5646 23.9768C27.553 23.9623 27.5454 23.9448 27.5427 23.9264V23.6605C27.5318 23.5718 27.4706 23.5439 27.3602 23.5771C27.3156 23.7666 27.3156 23.9994 27.3602 24.2752C27.3711 24.3193 27.3602 24.4079 27.3265 24.5406C27.3008 24.6335 27.2849 24.7288 27.2792 24.825C27.2792 24.9672 27.3564 25.0525 27.5119 25.0743C27.5999 24.7266 27.6324 24.3672 27.6081 24.0093H27.609ZM32.0448 26.2687C31.9629 25.8896 31.852 25.5174 31.713 25.1553C31.5234 24.6018 31.4016 24.2308 31.3476 24.0425C31.3015 24.0164 31.2505 24.0003 31.1978 23.9951C31.1424 23.9951 31.1206 24.0505 31.1315 24.161C31.1424 24.3032 31.1424 24.3885 31.1315 24.4103C31.2424 24.61 31.3615 24.9312 31.4888 25.3738C31.6162 25.8165 31.7459 26.1426 31.878 26.3521C31.8943 26.3583 31.9117 26.3611 31.9292 26.3602C31.9466 26.3594 31.9637 26.3549 31.9793 26.347C31.9949 26.3392 32.0087 26.3281 32.0199 26.3147C32.031 26.3012 32.0391 26.2855 32.0439 26.2687H32.0448Z" fill="black"/>
<path d="M41.7292 31.95C41.4186 31.95 41.1974 31.8449 41.0657 31.6348C41.0657 31.4907 41.0378 30.9202 40.9822 29.9234C40.9269 29.8238 40.8495 29.7906 40.75 29.8238C40.75 30.0788 40.7111 30.4608 40.6334 30.9699C40.5561 30.9481 40.4912 30.9841 40.4438 31.0779C40.3964 31.1718 40.3523 31.2201 40.3192 31.2201C40.2889 31.2172 40.2601 31.2057 40.2362 31.1869C40.1895 30.969 40.1783 30.7449 40.203 30.5234C40.2138 30.3022 40.2296 30.081 40.2504 29.8598C40.2406 29.8387 40.2233 29.822 40.2019 29.8128C40.1805 29.8036 40.1564 29.8026 40.1343 29.8101C40.0457 29.821 39.9955 29.8267 39.9846 29.8267V29.4612C39.9737 29.3191 39.9016 29.2399 39.7689 29.2285C39.7466 29.2399 39.6964 29.2285 39.6191 29.1868C39.5728 29.1596 39.5224 29.1401 39.4698 29.129C39.4253 29.129 39.4035 29.1622 39.4035 29.2285V30.2385C39.3476 30.2054 39.2613 30.2054 39.1376 30.2385C39.1153 30.3049 39.1153 30.549 39.1376 30.9694C39.1594 31.3018 39.1095 31.468 38.9878 31.468C38.8993 31.468 38.7499 31.3732 38.5395 31.1836C38.517 31.1173 38.4782 31.0841 38.4229 31.0841C38.3674 31.0841 38.2807 31.1282 38.1574 31.2168C38.1461 31.3277 38.0186 31.4053 37.775 31.4495C37.6862 31.3831 37.653 31.2726 37.6754 31.1177C37.6977 30.9959 37.7195 30.8741 37.7418 30.7523C37.786 30.431 37.8304 29.9436 37.875 29.2901C37.8127 29.2177 37.757 29.1398 37.7086 29.0574C37.6753 28.6374 37.6753 28.2153 37.7086 27.7953C37.7525 27.097 37.7746 26.6872 37.775 26.5658C37.7639 26.289 37.7584 25.8792 37.7584 25.3364C37.7694 23.4977 37.775 22.6118 37.775 22.6784C37.8304 22.6784 37.875 22.631 37.9081 22.5287C37.9299 22.1634 37.9244 21.5654 37.8916 20.7347C37.8691 19.9593 37.8746 19.3612 37.9081 18.9403C37.9402 18.9295 37.9738 18.9239 38.0077 18.9237C38.0849 18.9237 38.1546 18.9792 38.2153 19.0901C38.2759 19.201 38.329 19.256 38.3731 19.256C38.4399 19.256 38.5086 19.2171 38.5807 19.1399C38.6452 19.0769 38.6887 18.9957 38.7053 18.9071C38.6943 18.7409 38.7221 18.5084 38.7888 18.2095C38.8106 18.2411 38.9102 18.2964 39.0878 18.3754C39.1983 18.4313 39.2537 18.5085 39.2537 18.6081C39.2523 18.6527 39.2467 18.6971 39.2371 18.7408C39.3589 18.7744 39.4201 18.8683 39.4201 19.0252C39.4201 19.0473 39.4145 19.1421 39.4035 19.3095C39.3919 19.404 39.3919 19.4995 39.4035 19.5939C39.4229 19.6785 39.4695 19.7544 39.5362 19.81C39.5803 19.7991 39.6357 19.71 39.7021 19.5441C39.6913 19.9761 39.7136 20.6238 39.7689 21.4874C39.8021 21.4874 39.8267 21.5153 39.8433 21.5703C39.8599 21.6253 39.885 21.6533 39.9182 21.6533C39.9316 21.6518 39.9446 21.6473 39.9561 21.6402C39.9676 21.6331 39.9773 21.6234 39.9846 21.612L40.0846 21.4874V19.6399C40.1285 19.6513 40.1506 19.7315 40.1509 19.8806C40.1512 20.0298 40.1844 20.1047 40.2504 20.1053C40.2925 20.0974 40.3323 20.0805 40.367 20.0555C40.3763 19.8902 40.4012 19.7261 40.4415 19.5655C40.4828 19.3993 40.5079 19.2294 40.5163 19.0583C40.5167 18.9861 40.5111 18.914 40.4997 18.8427C40.6103 18.8427 40.6851 18.7541 40.7239 18.5768C40.7628 18.3995 40.804 18.3109 40.8486 18.3109C40.8843 18.3119 40.9189 18.3234 40.9481 18.3441C40.9374 18.4558 40.9094 18.5651 40.8652 18.6683C40.8209 18.7712 40.7929 18.8804 40.7822 18.992C40.7819 19.0691 40.805 19.1445 40.8486 19.2081C40.826 19.2426 40.8145 19.2831 40.8154 19.3242C40.8154 19.4683 40.8652 19.5403 40.9647 19.5403C41.0088 19.5403 41.0595 19.4768 41.1145 19.3508C41.1694 19.2247 41.1751 18.9105 41.1311 18.4119C41.1515 18.4227 41.1743 18.4284 41.1974 18.4284C41.2638 18.4284 41.3472 18.3569 41.4467 18.2128L41.596 26.7516C41.585 27.6711 41.596 29.0445 41.6292 30.8717C41.6397 31.0503 41.662 31.2279 41.696 31.4035C41.7268 31.584 41.7379 31.7672 41.7292 31.95ZM39.1044 25.0558C39.1262 24.8346 39.1095 24.1257 39.0542 22.9291L38.9381 22.896C38.8385 23.1402 38.7998 23.7771 38.8219 24.8065C38.8219 24.9838 38.8883 25.0724 39.021 25.0724C39.0495 25.0713 39.0777 25.0657 39.1044 25.0558ZM39.7021 32.3325C39.6877 32.3482 39.6692 32.3596 39.6487 32.3654C39.6282 32.3713 39.6065 32.3714 39.586 32.3657C39.5528 32.3543 39.5362 32.3211 39.5362 32.2657C39.541 32.2615 39.545 32.2565 39.5479 32.2508C39.5507 32.2451 39.5524 32.2388 39.5528 32.2325V32.0666C39.5856 32.0447 39.6138 32.0165 39.6357 31.9837C39.6251 32.0139 39.6218 32.0462 39.6262 32.0779C39.6306 32.1097 39.6424 32.1399 39.6608 32.1661C39.6952 32.2143 39.7099 32.2738 39.7021 32.3325ZM39.6547 31.2192C39.6659 31.2852 39.6659 31.3527 39.6547 31.4187C39.6339 31.4772 39.6282 31.5399 39.6381 31.6012C39.6168 31.5765 39.6025 31.5465 39.5967 31.5144C39.5908 31.4824 39.5937 31.4493 39.6049 31.4187C39.6357 31.2964 39.6523 31.2301 39.6523 31.2192H39.6547Z" fill="black"/>
<path d="M49.5201 30.7542C48.3017 31.0493 47.0527 31.1997 45.7991 31.2026C45.3447 31.2026 44.8962 31.1804 44.4535 31.1362C44.4326 31.1068 44.4053 31.0825 44.3735 31.0653C44.3418 31.048 44.3066 31.0382 44.2706 31.0367C44.2011 31.0435 44.1334 31.0631 44.071 31.0945C44.0139 31.124 43.9522 31.1438 43.8885 31.1528C43.8222 31.1528 43.7776 31.0974 43.7558 30.9864L44.1876 30.8869C44.3646 30.843 44.4751 30.7709 44.5194 30.6708C44.4748 30.6044 44.2589 30.527 43.8715 30.4385C43.5501 30.3614 43.4062 30.2509 43.4397 30.1068C43.6498 30.1178 43.8601 30.1234 44.0705 30.1234C44.3695 30.1234 44.5412 30.0513 44.5857 29.9072C44.6082 29.8409 44.575 29.7578 44.4862 29.6579C44.4315 29.6012 44.3814 29.5402 44.3364 29.4755C44.3613 29.4178 44.3726 29.3552 44.3696 29.2925C44.366 29.1895 44.3549 29.0868 44.3364 28.9854C44.3187 28.8893 44.3076 28.792 44.3033 28.6944C44.3033 28.4953 44.3981 28.4068 44.5876 28.429C44.6649 28.2958 44.6824 28.1797 44.635 28.0797C44.4028 28.0797 44.2865 27.9357 44.2862 27.6479C44.2906 27.5311 44.3017 27.4146 44.3194 27.299C44.3396 27.1897 44.3451 27.0781 44.336 26.9673C44.3486 26.9357 44.3542 26.9017 44.3526 26.8677C44.3495 26.8117 44.3412 26.756 44.3279 26.7014C44.3145 26.647 44.3061 26.5914 44.3028 26.5355C44.3028 26.4246 44.3748 26.3805 44.5189 26.4023C44.5407 26.3805 44.5521 26.2971 44.5521 26.153C44.4194 26.1312 44.3526 26.0923 44.3526 26.0369C44.3526 26.0151 44.3862 25.9483 44.4526 25.8374C44.5075 25.7492 44.5075 25.6715 44.4526 25.6051C44.5745 25.3722 44.5587 25.2005 44.4052 25.0899C44.4052 24.6027 44.4549 24.276 44.5545 24.1098C44.4767 24.0655 44.4241 23.9824 44.3966 23.8605C44.3691 23.7385 44.3331 23.6556 44.2886 23.6117C44.4548 23.3567 44.5379 23.1683 44.5379 23.0467C44.5377 23.0018 44.5321 22.9571 44.5213 22.9135C44.4549 22.9135 44.4217 22.8969 44.4217 22.8637C44.4262 22.8162 44.4425 22.7706 44.4691 22.731C44.4907 22.7006 44.5075 22.667 44.5189 22.6315C44.4858 22.5763 44.4686 22.513 44.4691 22.4486C44.4691 22.4707 44.5023 22.3378 44.5687 22.05C44.6126 21.9059 44.5573 21.7953 44.4028 21.7182C44.5134 21.3529 44.5631 20.9106 44.5521 20.3911C44.5297 19.9371 44.5075 19.4884 44.4857 19.0451C44.4968 18.8902 44.4968 18.6632 44.4857 18.364C44.4633 18.2758 44.4412 18.1872 44.4194 18.0981C44.4072 18.0566 44.4038 18.013 44.4096 17.9702C44.4153 17.9273 44.4299 17.8861 44.4526 17.8493C44.5118 17.8543 44.5689 17.8742 44.6184 17.9071C44.663 17.9382 44.7143 17.9582 44.7682 17.9654C44.79 17.9654 44.8289 17.9379 44.8843 17.8824C44.9398 17.827 44.9791 17.7995 45.0005 17.7995C45.1114 17.7995 45.1388 17.8602 45.0839 17.982C45.161 18.0483 45.2052 18.2695 45.2166 18.6455C45.2276 18.9337 45.366 19.05 45.6318 18.9943C45.6328 19.0353 45.6422 19.0756 45.6594 19.1127C45.6766 19.1499 45.7013 19.1832 45.7318 19.2105C45.775 19.1759 45.8264 19.153 45.8811 19.1441C45.9251 19.1441 45.956 19.2105 45.9725 19.3432C45.9891 19.4759 46.0308 19.5427 46.0972 19.5427C46.1323 19.5387 46.1662 19.5274 46.1967 19.5095C46.2738 19.3765 46.3125 19.1771 46.3128 18.9114V18.2948C46.3569 18.4166 46.3768 18.6266 46.3711 18.9261C46.3655 19.2256 46.4015 19.4475 46.4792 19.5896C46.5233 19.601 46.5844 19.5399 46.6617 19.4072C46.6727 19.4735 46.6784 19.7669 46.6787 20.2873C46.6674 20.675 46.7392 20.9409 46.8944 21.085H47.011C46.9882 20.8189 47.0214 20.4368 47.1105 19.9385C47.066 19.7284 47.0604 19.4571 47.0939 19.1247C47.1277 18.6378 47.1446 18.3611 47.1446 18.2948C47.4546 18.1621 47.6872 18.0956 47.8423 18.0953C47.966 18.0928 48.0875 18.1277 48.1911 18.1953C48.4461 18.1731 48.701 18.1621 48.9556 18.1621C50.1516 18.1621 51.2314 18.3946 52.1951 18.8597C53.2694 19.3805 54.0557 20.1388 54.554 21.1347C54.986 21.9989 55.2019 22.9514 55.2019 23.9922C55.2019 25.5762 54.6316 27.0215 53.4909 28.328C52.3942 29.5802 51.0706 30.3889 49.5201 30.7542ZM47.9589 24.1088C47.858 24.0183 47.793 23.8945 47.776 23.76C47.7984 23.5496 47.7763 23.256 47.7096 22.8794C47.5541 22.8794 47.4726 22.9628 47.4603 23.1287V23.5605C47.4489 23.7267 47.3992 23.8373 47.311 23.8922C47.3436 23.9712 47.3597 24.0561 47.3584 24.1415C47.3497 24.2676 47.3302 24.3927 47.3001 24.5155C47.2652 24.6539 47.2511 24.7967 47.2584 24.9392C47.2693 24.9501 47.275 24.9999 47.275 25.0885C47.275 25.1771 47.3086 25.2108 47.375 25.1885C47.4191 25.1771 47.4802 25.061 47.5575 24.8392C47.5796 25.0835 47.6129 25.4435 47.6575 25.9194C47.6575 26.0742 47.6519 26.2292 47.6409 26.3843C47.6519 26.5739 47.7183 26.6902 47.8399 26.7331C47.9619 26.5009 48.0229 26.2131 48.0229 25.8696C48.0229 25.7255 48.0071 25.5012 47.9755 25.1966C47.9471 24.9677 47.9303 24.7375 47.9252 24.507C47.9245 24.3735 47.9358 24.2403 47.9589 24.1088ZM47.6271 29.6575C47.6271 29.514 47.594 28.9547 47.5276 27.9797C47.4853 27.4214 47.4743 26.8613 47.4944 26.3018C47.4391 26.1353 47.4391 25.9141 47.4944 25.6383C47.4499 25.4487 47.4056 25.3539 47.3617 25.3539C47.3285 25.3539 47.2949 25.3819 47.2617 25.4369C47.2617 27.8626 47.2785 29.2581 47.3119 29.6233C47.4333 29.7232 47.4886 29.7731 47.4778 29.7731C47.5104 29.7737 47.5598 29.7352 47.6262 29.6575H47.6271ZM47.8433 22.5955C47.8101 22.5291 47.7485 22.5073 47.6608 22.5291C47.638 22.6291 47.6774 22.6898 47.7769 22.7121C47.8224 22.5803 47.8423 22.5419 47.8423 22.5969L47.8433 22.5955ZM51.0993 24.6558C51.0933 24.5914 51.0736 24.529 51.0415 24.4728C51.0139 24.4267 50.9942 24.3762 50.9832 24.3235C50.9838 24.3001 50.9902 24.2773 51.0018 24.2569C51.0134 24.2366 51.0298 24.2194 51.0496 24.2069C51.0938 24.0521 51.0385 23.9082 50.8837 23.7752L50.5846 21.1684C50.0971 20.2837 49.8201 19.802 49.7538 19.7233C49.3768 19.2468 48.9228 19.0086 48.3916 19.0086C48.2917 19.0087 48.1919 19.0142 48.0926 19.0252C48.0678 19.0376 48.047 19.0566 48.0323 19.0801C48.0177 19.1036 48.0098 19.1307 48.0096 19.1583C48.0096 19.2247 48.0704 19.3195 48.1921 19.4427C48.1697 19.5422 48.1697 19.7582 48.1921 20.0906C48.2145 20.356 48.1813 20.5614 48.0926 20.7068C48.0926 21.5264 48.1036 22.3903 48.1257 23.2984C48.1257 23.3872 48.1644 24.1956 48.2419 25.7236C48.3085 27.1082 48.3419 28.0877 48.3419 28.6622C48.3419 29.0274 48.3308 29.26 48.3087 29.3598C48.2693 29.4165 48.2247 29.4693 48.1755 29.5176C48.0978 29.6011 48.0594 29.6646 48.0594 29.7072C48.0594 29.7742 48.1257 29.8297 48.2584 29.8736C48.9896 29.7188 49.5988 29.2702 50.086 28.528C50.4848 27.9191 50.7673 27.1881 50.9335 26.335C50.9445 26.3034 50.9722 25.9157 51.0164 25.1719C51.0376 25.0506 51.0649 24.879 51.0984 24.6572L51.0993 24.6558ZM52.6776 22.3808C52.5228 22.1912 52.4452 21.8866 52.4449 21.467C52.4449 21.5115 52.4617 21.2235 52.4952 20.603C52.4724 20.3818 52.4612 20.0551 52.4615 19.6228L52.362 19.4901C52.3395 19.4462 52.2787 19.4462 52.1795 19.4901C52.1904 19.656 52.1961 19.828 52.1961 20.0048C52.1961 20.038 52.2016 21.0017 52.2127 22.896C52.2127 24.0591 52.268 25.0228 52.3786 25.7871C52.4288 25.795 52.4754 25.8183 52.5117 25.8539C52.5449 25.843 52.5833 25.7928 52.6279 25.7042C52.5839 24.2532 52.6002 23.1456 52.6767 22.3813L52.6776 22.3808ZM53.3089 20.703H53.1265C53.104 21.3567 53.0486 22.3362 52.9601 23.6415C52.971 23.7742 52.9852 23.9183 53.0018 24.0733C53.0184 24.2283 53.0819 24.3283 53.1914 24.3724C53.2802 23.8965 53.3189 23.2873 53.3075 22.5448L53.3089 20.703Z" fill="black"/>
<path d="M66.7333 26.1521C66.7999 26.3617 66.8336 26.5805 66.8333 26.8004C66.8333 27.7635 66.3072 28.7272 65.2551 29.6916C65.1441 29.8025 64.9669 29.9576 64.7233 30.157C64.4003 30.3516 64.0613 30.5183 63.7099 30.6551C63.2335 30.8447 62.8736 30.9499 62.6303 30.9708C62.508 31.0485 62.0206 31.1316 61.1681 31.2201C60.7033 31.2754 60.1883 31.2422 59.623 31.1206C59.5342 31.0981 59.4097 31.1176 59.2495 31.1789C59.0889 31.2395 58.9694 31.2642 58.8922 31.2533C58.6264 31.2865 58.2387 31.2865 57.7291 31.2533C57.7291 31.01 57.6238 30.8495 57.4134 30.7717C57.3363 30.7386 57.1924 30.7939 56.9816 30.9376C56.9371 30.9376 56.9213 30.8547 56.9342 30.6888C57.1886 30.6332 57.5818 30.5722 58.1139 30.5058C58.7459 30.4834 59.1555 30.3671 59.3429 30.157L60.5723 30.0907C61.0488 30.0575 61.4476 29.9799 61.7686 29.8579C61.8517 29.8983 61.9422 29.9209 62.0345 29.9243C62.2674 29.9243 62.4612 29.7693 62.6161 29.4593C62.8151 29.0603 62.9369 28.8391 62.9815 28.7958C63.0301 28.3732 62.9365 27.9465 62.7156 27.5829C62.3721 27.3172 61.4917 26.8077 60.0742 26.0544C58.8666 25.4124 58.0134 24.8199 57.5148 24.2771C56.7947 23.4909 56.5178 22.5716 56.684 21.5191C56.7061 21.3864 56.7892 21.2092 56.9333 20.9873C56.9443 21.187 56.9554 21.3864 56.9665 21.5855C56.9996 21.8405 57.1049 21.9845 57.2821 22.0177C57.4038 21.8958 57.4369 21.5081 57.3817 20.8546C57.3764 20.8169 57.3589 20.7819 57.332 20.755C57.3051 20.7281 57.2701 20.7106 57.2324 20.7053C57.1437 20.6831 57.0996 20.6551 57.0996 20.6219C57.1101 20.5887 57.1214 20.5556 57.1328 20.5224C57.354 20.0465 57.7194 19.7148 58.2291 19.5271C58.2847 19.9694 58.2626 20.2519 58.1627 20.3745C58.1721 20.9779 58.3258 21.5703 58.6111 22.1021C58.9324 22.7227 59.3533 23.1159 59.8737 23.2818C59.9957 23.2151 60.0178 23.1154 59.9401 22.9827C59.7505 22.7059 59.4737 22.4124 59.1097 22.1021C59.091 22.0782 59.0794 22.0494 59.0765 22.0191C59.0765 21.986 59.104 21.9523 59.1595 21.9191C59.2149 21.886 59.2315 21.831 59.2092 21.7533C59.1429 21.6199 59.0481 21.4095 58.9249 21.1219C58.7625 20.7091 58.678 20.2698 58.6756 19.8261C58.6756 19.4606 58.7476 19.1726 58.8917 18.9621C59.1021 18.6414 59.5175 18.431 60.1377 18.3308C60.625 18.2645 61.1179 18.1981 61.6165 18.1317C61.8045 18.1904 62.0007 18.2184 62.1975 18.2147C62.2532 18.2147 62.5135 18.1926 62.9786 18.1483C63.2993 18.1152 63.5651 18.1262 63.7758 18.1815C63.7436 18.2339 63.7075 18.2838 63.6678 18.3308C63.6071 18.4085 63.5768 18.464 63.5768 18.4972C63.5768 18.5412 63.6208 18.5744 63.7095 18.5967C63.809 18.6188 63.9918 18.6188 64.2578 18.5967C64.4901 18.5856 64.6727 18.6078 64.8057 18.663C64.7502 18.675 64.6998 18.7037 64.6612 18.7454C64.6226 18.787 64.5978 18.8395 64.5901 18.8958C64.6217 18.9065 64.8819 18.9286 65.3707 18.9621C65.747 18.9846 65.9353 19.0951 65.9357 19.2939C65.9357 19.3934 65.8911 19.5157 65.8029 19.6593C65.7252 19.6483 65.4925 19.6427 65.1048 19.6427C64.828 19.6541 64.612 19.5933 64.4569 19.4602C63.8363 19.4602 63.2107 19.4547 62.58 19.4437C61.8046 19.4658 61.2176 19.6152 60.8188 19.892C60.6292 20.1913 60.585 20.4737 60.6861 20.7395C60.6194 20.7505 60.5562 20.7172 60.4965 20.6395C60.456 20.5836 60.4082 20.5333 60.3543 20.4902C60.2877 20.1581 60.2543 19.9753 60.2543 19.9418C60.2481 19.8279 60.2836 19.7156 60.3543 19.6261C60.3859 19.5042 60.3415 19.4211 60.2211 19.3768C60.0439 19.4214 59.9415 19.4849 59.914 19.5664C59.8861 19.6493 59.872 19.7363 59.8723 19.8238C59.8769 20.0878 59.9363 20.3479 60.0467 20.5878C60.1633 20.8537 60.2984 21.0366 60.4539 21.1362C60.5155 21.0867 60.591 21.0577 60.67 21.0532C60.7581 21.0532 60.8415 21.1305 60.9188 21.2855C61.0297 21.475 61.1128 21.5913 61.1681 21.6343C62.2424 22.2438 63.3167 22.853 64.391 23.4619C65.6631 24.2591 66.4439 25.1558 66.7333 26.1521ZM60.3349 24.524C60.036 24.2693 59.72 23.9815 59.387 23.6605H59.1026C59.1468 23.8264 59.3018 24.0534 59.5676 24.3415C59.8333 24.6297 60.0387 24.7736 60.1837 24.7733C60.2875 24.7733 60.3349 24.6904 60.3349 24.524ZM65.9835 27.3C66.0151 27.0453 65.9431 26.7293 65.7674 26.3521C65.6305 26.0375 65.4457 25.746 65.2195 25.4881C65.195 25.4653 65.1662 25.4477 65.1348 25.4363C65.1033 25.4249 65.0699 25.4199 65.0366 25.4217C64.9038 25.4217 64.8593 25.4881 64.9038 25.6212C64.9354 25.7321 65.0573 25.926 65.2693 26.2028C65.4462 26.435 65.5348 26.6404 65.5352 26.8189C65.5348 26.8975 65.5237 26.9756 65.502 27.0512C65.3465 27.0843 65.2745 27.1843 65.2859 27.3502C65.2859 27.5607 65.2637 27.6991 65.2195 27.7654C65.2531 27.8264 65.2695 27.8954 65.2669 27.965C65.2579 28.0707 65.2326 28.1745 65.192 28.2726C65.153 28.3707 65.1294 28.4743 65.1219 28.5797C65.1209 28.6314 65.1324 28.6827 65.1555 28.729C65.2219 28.7517 65.3214 28.7181 65.4541 28.6294C65.4959 28.5469 65.5461 28.4689 65.6039 28.3967C65.6632 28.3268 65.6981 28.2394 65.7034 28.1479C65.7032 28.1139 65.6976 28.0801 65.6868 28.0479C65.7423 27.9929 65.7816 27.8583 65.8034 27.6493C65.812 27.4706 65.8726 27.354 65.9835 27.3Z" fill="black"/>
<path d="M48.8784 40.7723C48.949 40.8808 49.0134 40.9912 49.0732 41.104C49.0942 41.1351 49.1132 41.1676 49.13 41.2012L47.7508 42.4017C46.6926 40.8778 45.8679 40.3509 45.2768 40.8211L44.8549 41.1941C46.0556 43.2005 46.6343 44.3173 46.591 44.5445L46.583 44.5767C46.5122 45.0905 46.285 45.3474 45.9014 45.3474H45.8284L45.8204 45.3801C45.8962 45.5153 45.9232 45.6288 45.9014 45.7204L45.8853 45.7934C45.6474 46.0692 45.4578 46.2071 45.3166 46.2071L45.0322 46.1261L45.0241 46.1669C45.1086 46.2143 45.1808 46.2809 45.235 46.3612L43.2724 45.6071L43.2643 45.6393L43.0046 45.8261H42.8932L42.7036 46.1019L42.7278 46.6858C43.7389 47.9241 45.045 48.6035 46.646 48.7239V48.6428L46.946 45.3412H47.1001L47.4001 44.6924L47.7006 44.3606V44.8554H47.8546V44.1919L47.5461 43.8753L48.0025 43.3672L49.813 44.025V44.1876C49.4073 45.9021 49.1665 47.3486 49.0907 48.5272H49.1073C49.3936 48.2191 49.5936 48.0325 49.7073 47.9674H49.967C50.1939 48.011 50.3075 48.1083 50.3078 48.2594C50.3078 48.2868 50.305 48.3141 50.2993 48.3409L50.2671 48.4869C50.1859 48.8815 49.929 49.2765 49.4964 49.6718L49.5125 49.7855L49.5045 49.8263L49.4642 49.8585C49.3823 50.0502 49.2847 50.2347 49.1722 50.4102C49.2961 51.0308 49.4585 51.6431 49.6585 52.2435L49.5125 52.7383C49.2639 52.7383 49.1152 52.5193 49.0665 52.0814H48.9125V52.4056H48.3039L48.0039 51.5866L47.8579 51.7487H47.7039C47.4814 51.5693 47.292 51.3524 47.1442 51.1079C46.7334 51.0592 46.1196 50.9835 45.3028 50.8808C45.0216 50.8449 44.7427 50.7933 44.4672 50.7263L42.4392 48.3565L42.3174 48.4376L42.7638 49.3301L43.007 49.1594L43.1937 49.4353L43.1463 49.8571L43.0164 49.9462L41.6377 48.5186L41.8567 48.5594L41.978 48.4779L41.6936 48.0726L41.2557 47.975L41.5401 48.3807L41.4187 48.4698L41.0372 47.9267L41.1021 47.4882L40.7614 47.4153C40.7561 47.356 40.7533 47.2991 40.7533 47.2451C40.7532 47.0844 40.769 46.924 40.8007 46.7664L41.0035 46.3124L41.0197 46.0526C41.1546 45.8905 41.2519 45.6662 41.3116 45.3796C41.6794 44.6112 42.158 44.2271 42.7472 44.2274H43.7127L44.1345 44.3412H44.1729L43.5966 42.9947C43.1153 42.0752 42.891 41.5398 42.9236 41.3884L42.9397 41.2747C43.1924 40.9125 43.344 40.726 43.3942 40.7149H43.4345L43.4023 40.3419L43.462 40.2391C43.7103 39.5897 43.94 39.2652 44.1511 39.2655L44.7838 39.2006L45.5545 39.0219L44.4431 38.7461C44.481 38.5729 44.7352 38.3729 45.2057 38.1461L45.4085 38.219L45.8303 38.1863C45.9495 38.2179 46.0251 38.2668 46.0574 38.3328C46.2302 38.3328 46.4844 38.4518 46.82 38.6897L46.7797 38.884L47.2257 39.0058C47.3767 39.1303 47.539 39.2709 47.7124 39.4276C47.7431 39.4799 47.7882 39.5222 47.8423 39.5494C47.8745 39.5765 47.9072 39.6063 47.9371 39.6386L47.9049 39.7845H47.175L47.1276 39.9793L48.0527 40.2955L48.0608 40.3931L48.5068 40.45L48.6125 40.3523C48.6172 40.3677 48.6255 40.3816 48.6366 40.3931L48.6286 40.4661L48.4907 40.5794L48.458 40.7173L48.8784 40.7723Z" fill="black"/>
<path d="M27.1763 68.2585C27.1763 68.3802 27.1708 68.729 27.1597 69.305C27.1376 69.7367 27.1321 70.091 27.1431 70.3681C27.1431 70.5012 27.1542 70.7171 27.1763 71.016C27.1984 71.3149 27.2095 71.5361 27.2095 71.6796C27.2134 72.0056 27.1685 72.3304 27.0763 72.6431C27.0555 72.619 27.0302 72.5992 27.0017 72.585C26.9732 72.5708 26.9422 72.5623 26.9104 72.5602C26.8551 72.5602 26.7831 72.5962 26.6943 72.6682C26.6055 72.7403 26.5391 72.7763 26.4952 72.7763C26.4507 72.7763 26.4061 72.7431 26.362 72.6763C26.3343 72.7021 26.2998 72.7196 26.2625 72.7265C26.218 72.7265 26.1848 72.6735 26.163 72.5687C26.1412 72.464 26.1184 72.4 26.0962 72.3791C26.1187 72.324 26.1219 72.2629 26.1054 72.2057C26.0889 72.1485 26.0536 72.0986 26.0052 72.064C25.9099 71.9798 25.7908 71.9275 25.6644 71.9142C25.5756 72.1354 25.4372 72.246 25.2492 72.246C25.1868 72.2448 25.125 72.2336 25.0662 72.2128C25.019 72.1375 24.9905 72.052 24.9833 71.9635V71.4151C24.9719 71.2053 24.9109 71.0448 24.8004 70.9336C24.7515 70.9453 24.7013 70.9509 24.6511 70.9501C24.6179 70.9501 24.5073 70.9391 24.3193 70.917C24.197 70.8947 24.1032 70.9032 24.0349 70.9421C23.9667 70.981 23.9297 71.0776 23.9188 71.2326C23.9569 71.2737 23.9802 71.3262 23.9851 71.3819C23.9851 71.4379 23.9543 71.5066 23.8937 71.59C23.833 71.6734 23.8022 71.7364 23.8022 71.7796C23.8022 71.835 23.8411 71.8905 23.9188 71.9455C23.896 72.0341 23.8657 72.1313 23.8273 72.236C23.7889 72.3407 23.7358 72.4 23.6695 72.4109C23.6363 72.422 23.6169 72.4025 23.6112 72.3526C23.6096 72.313 23.5951 72.2751 23.57 72.2445C23.5918 71.8338 23.564 71.2301 23.4865 70.4335C23.4091 69.637 23.3759 69.0501 23.387 68.6728C23.387 68.5066 23.4064 68.2241 23.4453 67.8253C23.4842 67.4266 23.5034 67.1221 23.5031 66.912C23.5031 66.3249 23.3868 65.8541 23.1543 65.4996C23.1164 65.4895 23.0774 65.4839 23.0382 65.483C22.9386 65.483 22.8661 65.5717 22.822 65.7489C22.7664 65.9818 22.7222 66.1202 22.6893 66.1641C22.0574 67.7813 21.4097 69.5033 20.7461 71.3303C20.6352 71.1754 20.5134 70.9179 20.3807 70.5577C20.248 70.1975 20.1205 69.94 19.9982 69.7852C19.9982 69.4752 19.8244 69.0766 19.4769 68.5894C19.1293 68.1021 18.9555 67.6978 18.9555 67.3765C18.8228 67.1771 18.6899 66.8891 18.5569 66.5125C18.4014 66.0477 18.2908 65.7486 18.2251 65.6153C18.1474 65.3941 18.0643 65.1729 17.9758 64.9517C17.8649 64.6863 17.7044 64.5313 17.4943 64.4868C17.317 64.6195 17.2284 64.852 17.2284 65.1844C17.2395 65.7387 17.245 65.999 17.245 65.9655C17.3261 66.3701 17.365 66.7819 17.3611 67.1945C17.3611 67.5269 17.3169 68.1416 17.2284 69.0387C17.1507 69.8254 17.1285 70.4402 17.162 70.8828C17.1413 70.8934 17.1185 70.8991 17.0952 70.8994C17.0317 70.8854 16.9704 70.8631 16.9127 70.8331C16.8573 70.7999 16.8132 70.8165 16.7796 70.8805C16.8241 71.6338 16.6249 72.182 16.1819 72.5251C16.2019 72.4072 16.1874 72.2861 16.1402 72.1763C16.0904 72.0431 16.071 71.9393 16.0819 71.8606C16.2591 69.4795 16.3539 67.5689 16.3663 66.129C16.3663 65.2759 16.3552 64.462 16.3331 63.6872C16.3015 62.8123 16.2849 62.4412 16.2833 62.5739C16.288 62.4516 16.2991 62.3296 16.3165 62.2085C16.3362 62.0653 16.3473 61.9211 16.3497 61.7767C16.3386 61.6326 16.2999 61.3612 16.2336 60.9624C16.1849 60.6993 16.157 60.4327 16.1501 60.1652C16.261 60.1652 16.3885 60.2482 16.5326 60.4141C16.6767 60.5799 16.793 60.663 16.8815 60.6634C16.9586 60.6634 17.0472 60.6136 17.1473 60.5141C17.1605 60.51 17.1745 60.509 17.1882 60.5112C17.2018 60.5134 17.2147 60.5187 17.226 60.5267C17.2372 60.5347 17.2465 60.5453 17.253 60.5575C17.2595 60.5697 17.2631 60.5832 17.2635 60.597C17.2799 60.6623 17.308 60.7241 17.3464 60.7795C17.2244 60.8793 17.2052 61.04 17.2886 61.2615C17.372 61.483 17.3581 61.6269 17.2469 61.6933C17.3906 61.9704 17.5401 62.1089 17.6952 62.1089L17.8118 61.9923V60.979C17.8229 60.5471 17.9281 60.2425 18.1275 60.0652C18.1052 59.988 18.1161 59.9382 18.1607 59.9159V60.2813C18.1607 60.4254 18.1938 60.536 18.2602 60.6131C18.3178 60.6218 18.3767 60.61 18.4266 60.5799C18.4152 60.5359 18.4266 60.5079 18.4597 60.497C18.4881 60.4983 18.516 60.5039 18.5427 60.5136C18.5537 60.6684 18.5648 60.8234 18.5759 60.9785C18.5983 61.1779 18.6814 61.2831 18.8252 61.2942C18.8361 61.4274 18.8967 61.5046 19.0076 61.5269C19.0519 61.4053 19.0852 61.0342 19.1076 60.4136C19.1294 59.9488 19.2347 59.7162 19.4233 59.7159C19.4691 59.7191 19.5141 59.7303 19.556 59.7491C19.6113 59.8821 19.7497 60.0373 19.9712 60.2145C20.2812 61.0231 20.7575 62.2358 21.4002 63.8526C21.3819 63.9043 21.3791 63.9602 21.3924 64.0134C21.4056 64.0665 21.4342 64.1147 21.4746 64.1517C21.558 64.2294 21.6433 64.3071 21.7324 64.3844C21.976 64.3955 22.1754 64.1517 22.3306 63.6531C22.4519 63.2768 22.6955 62.6511 23.0614 61.7762C23.4045 60.9787 23.6371 60.3419 23.7591 59.8657C23.8147 59.8546 24.003 59.9044 24.324 60.015C24.2225 60.326 24.1719 60.6514 24.1743 60.9785C24.1743 61.4882 24.2905 62.1029 24.5231 62.8227C24.5785 62.8336 24.6449 62.8839 24.7226 62.972C24.8004 63.0602 24.8553 63.1052 24.889 63.1052C24.916 63.1022 24.9419 63.0932 24.9649 63.0787C24.9879 63.0643 25.0073 63.0448 25.0217 63.0218C25.0217 62.8891 25.0327 62.6954 25.0549 62.4407C25.077 62.186 25.088 61.9977 25.088 61.8757C25.088 61.8094 25.0825 61.7146 25.0715 61.5914C25.0604 61.4681 25.0549 61.3733 25.0549 61.307C25.0574 61.1983 25.089 61.0923 25.1463 60.9999C25.1998 60.9177 25.2313 60.8232 25.2378 60.7254C25.2338 60.6291 25.2179 60.5335 25.1904 60.4411C25.1566 60.3637 25.1724 60.3084 25.2378 60.2752C25.2663 60.2591 25.299 60.2521 25.3316 60.255C25.3642 60.258 25.3952 60.2708 25.4203 60.2918C25.4777 60.3256 25.525 60.3743 25.5572 60.4326C25.5893 60.491 25.6053 60.5569 25.6032 60.6235V60.7563C25.5938 60.8057 25.5883 60.8557 25.5866 60.906C25.5827 60.9629 25.5927 61.0199 25.6159 61.072C25.639 61.1242 25.6745 61.1698 25.7194 61.2051C25.7083 61.5596 25.7138 62.0303 25.7359 62.617C25.7584 63.3147 25.7694 63.7798 25.7691 64.0123C25.8909 64.0351 25.9544 64.1545 25.9587 64.3782C25.963 64.602 26.0336 64.7162 26.1668 64.7271C26.2218 64.6939 26.2663 64.6105 26.2995 64.4778C26.3769 64.1125 26.4211 63.4591 26.4322 62.5175C26.4432 61.5759 26.5042 60.867 26.6151 60.3908V60.7141C26.6151 60.8471 26.6483 60.9302 26.7147 60.9634C26.8147 60.9966 26.8919 60.9468 26.9474 60.8141C26.9697 60.7804 27.0137 60.8307 27.0801 60.9634C27.1028 61.0331 27.114 61.1061 27.1133 61.1795C27.1001 61.3367 27.0723 61.4924 27.0303 61.6445C26.9883 61.7958 26.9771 61.9541 26.9971 62.1099C26.9863 62.1533 26.9807 62.1978 26.9806 62.2426C26.9806 62.2205 27.0082 62.3644 27.0635 62.6744C27.1077 62.8406 27.069 62.9736 26.9474 63.0734C26.9564 63.1371 26.9761 63.1988 27.0057 63.2559C27.0349 63.3133 27.0545 63.3751 27.0635 63.4389C27.0628 63.4728 27.0532 63.5059 27.0358 63.535C27.0183 63.5641 26.9936 63.5882 26.964 63.6047C26.9881 63.7007 27.04 63.7875 27.1133 63.854C27.1777 65.1625 27.1987 66.6307 27.1763 68.2585ZM25.499 62.1118C25.4767 62.145 25.4217 62.1592 25.3331 62.1592C25.2444 62.1592 25.1947 62.1867 25.1838 62.2421C25.2388 62.3085 25.2833 62.3307 25.3165 62.3085C25.3274 62.2753 25.3772 62.2506 25.4658 62.2341C25.5544 62.2175 25.599 62.2032 25.599 62.1923C25.5725 62.1579 25.5382 62.1303 25.499 62.1118Z" fill="black"/>
<path d="M40.0021 68.1253C39.9025 68.0922 39.8082 68.1533 39.7177 68.3083C39.7592 68.3665 39.7823 68.4359 39.784 68.5074C39.784 68.5742 39.7314 68.668 39.6262 68.7917C39.521 68.9154 39.4793 69.0287 39.5016 69.1406C39.4238 69.1742 39.3769 69.2903 39.3594 69.4899C39.3418 69.6894 39.2902 69.7885 39.2016 69.7885C39.138 69.7836 39.0759 69.7667 39.0186 69.7387C38.9415 69.7833 38.8862 69.9051 38.8527 70.1041C38.8306 70.2596 38.7309 70.3316 38.5537 70.3203C38.4759 70.3757 38.4044 70.4975 38.3375 70.6857C38.2822 70.819 38.1549 70.9021 37.9555 70.935C37.856 70.9463 37.8062 70.9961 37.8062 71.0843C37.8062 71.107 37.8114 71.162 37.8228 71.2506C37.834 71.2998 37.834 71.3508 37.8228 71.3999C37.776 71.4377 37.7163 71.4558 37.6565 71.4502C37.5348 71.6713 37.3244 71.8706 37.0251 72.0478L36.2611 72.4801C36.1278 72.4801 36.0557 72.4219 36.045 72.3057C36.0341 72.1891 36.0118 72.1256 35.9786 72.1161C35.8886 72.1377 35.8038 72.1772 35.7293 72.2322C35.7196 72.2952 35.7313 72.3596 35.7625 72.4151C35.7846 72.4387 35.8008 72.4671 35.8099 72.4981C35.7888 72.5287 35.7618 72.5548 35.7305 72.5747C35.6991 72.5947 35.6641 72.6081 35.6274 72.6142L35.4113 72.6806C35.4113 72.5924 35.3671 72.4818 35.2786 72.3488C35.2009 72.3488 35.1122 72.4213 35.0127 72.5649C34.9132 72.7085 34.8355 72.781 34.78 72.781C34.7245 72.781 34.6582 72.7365 34.5809 72.6479C34.4295 72.7162 34.265 72.7503 34.0989 72.7479C33.9198 72.7402 33.7419 72.7151 33.5676 72.673C33.3932 72.6309 33.2151 72.6058 33.0358 72.5981C32.9581 72.4761 32.7974 72.4098 32.5538 72.399C32.3102 72.3881 32.1552 72.3488 32.0889 72.2824C32.0664 72.2714 31.9999 72.1717 31.8893 71.9834C31.8119 71.8614 31.7234 71.8006 31.6239 71.8009C31.579 71.801 31.5343 71.8066 31.4907 71.8175L31.2414 71.5018C31.1419 71.3686 31.031 71.3122 30.9097 71.3355C30.9206 71.2359 30.8684 71.1667 30.7518 71.1279C30.6352 71.089 30.5774 71.0587 30.5774 71.0364C30.5774 71.0141 30.6163 70.97 30.694 70.9037C30.7047 70.8042 30.6438 70.7266 30.5111 70.671L30.3452 70.7539C29.2946 69.5115 28.7693 67.9598 28.7693 66.0987C28.7689 65.0671 28.9618 64.0445 29.338 63.0839C29.7146 62.1151 30.2518 61.2983 30.9495 60.6335C31.0135 60.6415 31.074 60.6674 31.1239 60.7084C31.1959 60.7581 31.2594 60.7719 31.3135 60.7496C31.3684 60.6501 31.4763 60.5809 31.6372 60.542C31.7974 60.5036 31.9054 60.4396 31.9614 60.3524C32.0163 60.3306 32.21 60.3472 32.5424 60.4022C32.8085 60.3027 33.0744 60.1974 33.3401 60.0865C33.6611 59.9649 33.9435 59.9041 34.1871 59.9041L34.2705 59.987C34.2259 60.109 34.1068 60.2447 33.9131 60.3941C33.7194 60.5436 33.606 60.6848 33.5728 60.8179C33.6831 60.8732 33.8326 60.8509 34.0212 60.751C34.5643 60.6948 34.9574 60.6667 35.2004 60.6667C36.064 60.6667 36.6619 60.8992 36.9943 61.3643C37.1048 61.3757 37.1773 61.3477 37.2105 61.2814C37.1659 61.1487 37.0553 61.0048 36.8787 60.8496C36.6575 60.66 36.5191 60.527 36.4635 60.4505C36.5185 60.4395 36.6235 60.3787 36.7787 60.2681C36.9209 60.1908 37.0389 60.1515 37.128 60.1515C37.1919 60.1539 37.2543 60.1711 37.3105 60.2017C37.9639 60.578 38.5287 61.2204 39.0049 62.1288C39.4209 62.8991 39.7178 63.728 39.8855 64.5872C39.9566 64.9986 39.9844 65.4162 39.9684 65.8333C39.946 66.2542 39.9183 66.6695 39.8855 67.0793C39.8966 67.273 39.8966 67.4672 39.8855 67.6609C39.8632 67.8268 39.8466 67.8978 39.8381 67.877C39.8695 67.9178 39.909 67.9517 39.9542 67.9765C40.0182 68.0201 40.0348 68.0704 40.0021 68.1253ZM30.3167 68.1585C30.2971 68.1712 30.2808 68.1884 30.2693 68.2087C30.2577 68.229 30.2512 68.2518 30.2504 68.2751C30.2504 68.3528 30.3058 68.4467 30.4167 68.5595C30.5589 68.5372 30.6324 68.5149 30.6324 68.4927C30.6235 68.4159 30.5918 68.3436 30.5414 68.2851C30.5172 68.2469 30.484 68.2154 30.4446 68.1933C30.4052 68.1712 30.3609 68.1592 30.3158 68.1585H30.3167ZM30.8651 67.5424C30.8758 67.5762 30.8814 67.4378 30.8817 67.1272C30.8817 66.9504 30.8205 66.8561 30.6992 66.8428C30.6215 67.2852 30.6657 67.5566 30.8319 67.6571C30.8482 67.6437 30.86 67.6257 30.8658 67.6055C30.8715 67.5852 30.871 67.5637 30.8642 67.5438L30.8651 67.5424ZM31.4632 67.5092C31.3855 66.6245 31.3855 66.0154 31.4632 65.6821C31.5407 65.3607 31.5075 65.2222 31.3637 65.2664C31.1975 65.9537 31.1144 66.4908 31.1144 66.8779C31.1144 67.1885 31.1642 67.4097 31.2637 67.5414C31.3408 67.6432 31.407 67.6329 31.4623 67.5106L31.4632 67.5092ZM32.2438 60.9307C32.2547 60.9084 32.2438 60.8946 32.2107 60.8889C32.1775 60.8833 32.1609 60.87 32.1609 60.8477C31.995 60.8918 31.9391 60.9695 31.995 61.08C32.0009 61.0966 32.0124 61.1108 32.0275 61.1199C32.0426 61.1291 32.0605 61.1327 32.078 61.1302C32.1024 61.1289 32.1262 61.1222 32.1477 61.1107C32.1693 61.0991 32.188 61.083 32.2026 61.0634C32.2199 61.0467 32.2326 61.0259 32.2397 61.0029C32.2467 60.98 32.2478 60.9556 32.2429 60.9321L32.2438 60.9307ZM37.5934 69.0875C37.7372 68.7443 37.8092 68.3069 37.8095 67.7751C37.8095 67.0218 37.6544 66.0638 37.3441 64.901C37.2739 64.7066 37.1783 64.5224 37.0597 64.3531C37.0334 64.2621 36.9943 64.1753 36.9436 64.0953C36.8773 63.9793 36.8441 63.888 36.8441 63.8213C36.8452 63.781 36.8564 63.7416 36.8767 63.7068C36.897 63.6719 36.9257 63.6427 36.9602 63.6218C36.7605 63.6663 36.5888 63.5667 36.445 63.3227C36.2678 63.0352 36.1128 62.8692 35.9801 62.8246C36.0025 62.6698 35.9415 62.575 35.7971 62.5402C35.5981 62.4963 35.4875 62.4519 35.4653 62.407C35.4878 62.2743 35.5127 62.1388 35.5402 62.0004C35.5677 61.862 35.6647 61.8094 35.8312 61.8426C36.2963 61.9203 36.7559 62.3688 37.21 63.1881H37.3427C37.3873 63.1314 37.4108 63.0608 37.409 62.9886C37.409 62.9113 37.3702 62.799 37.2929 62.6483C37.244 62.5592 37.1997 62.4676 37.1602 62.3739C37.2822 62.2636 37.343 62.1917 37.3427 62.1582C37.3427 61.9039 36.9496 61.555 36.1635 61.1117C36.0305 61.034 35.914 61.034 35.8142 61.1117C35.7356 61.0779 35.6509 61.0608 35.5653 61.0615C35.2664 61.0615 34.9009 61.2553 34.4686 61.643C33.9495 62.1211 33.5217 62.6897 33.206 63.3208C32.7298 64.2845 32.4917 65.3431 32.4917 66.4964C32.4917 67.5599 32.6971 68.5179 33.1079 69.3704C33.3183 69.8128 33.5237 70.1395 33.724 70.3506C33.9243 70.5616 34.2179 70.7279 34.6046 70.8492C34.9917 70.9711 35.3184 71.0099 35.5848 70.9653C36.382 70.8326 36.9349 70.4449 37.2436 69.8022C37.3207 69.7472 37.3928 69.6366 37.4598 69.4704C37.5038 69.3401 37.5479 69.2112 37.5925 69.0889L37.5934 69.0875ZM34.5369 71.1146C34.5476 71.0823 34.5532 71.0486 34.5534 71.0146C34.5534 70.9596 34.5307 70.9317 34.4866 70.9317C34.4559 70.9334 34.426 70.9417 34.3987 70.9561C34.3715 70.9704 34.3477 70.9903 34.3288 71.0146C34.3053 71.0383 34.2879 71.0673 34.2778 71.0991C34.2678 71.1309 34.2654 71.1646 34.271 71.1975C34.3477 71.2095 34.4361 71.1824 34.5359 71.116L34.5369 71.1146ZM37.0962 60.8477C37.174 60.8586 37.2128 60.842 37.2128 60.7975C37.2128 60.6979 37.1353 60.5929 36.9801 60.4823C36.836 60.3821 36.7585 60.4208 36.7474 60.5984C36.8002 60.6771 36.9157 60.7607 37.0939 60.8491L37.0962 60.8477Z" fill="black"/>
<path d="M50.5505 72.4948C50.4951 72.5057 50.4557 72.5559 50.4259 72.6441C50.396 72.7322 50.3453 72.7659 50.268 72.7441C50.1685 72.4673 50.0023 72.063 49.7694 71.5312C49.6808 71.498 49.6272 71.5089 49.6035 71.5644C49.5917 71.636 49.5917 71.709 49.6035 71.7805C49.6144 71.836 49.6258 71.8966 49.6367 71.963L49.7197 72.1128C49.6201 72.0129 49.4873 71.7415 49.3211 71.2985C49.177 70.9329 49.0275 70.7391 48.8727 70.717C48.8406 70.7324 48.8131 70.7558 48.7927 70.7849C48.7722 70.814 48.7597 70.8479 48.7561 70.8833C48.7545 70.9182 48.7612 70.9529 48.7757 70.9847C48.7902 71.0164 48.8121 71.0442 48.8395 71.0658C48.9833 71.4424 49.2045 71.9963 49.5031 72.7275C49.4599 72.7439 49.4203 72.7685 49.3865 72.8C49.3601 72.8293 49.3254 72.8497 49.2869 72.8583C49.2315 72.8583 49.176 72.8223 49.1211 72.7502C49.0661 72.6782 49.0263 72.6422 49.0045 72.6422C48.927 72.6422 48.8828 72.7918 48.8717 73.091C48.6168 73.0686 48.4114 72.9079 48.2556 72.609C48.0783 72.2658 47.9066 72.0605 47.7404 71.9928C47.5963 71.6165 47.2804 71.1182 46.7925 70.498C46.5713 70.2212 46.3111 69.6785 46.0119 68.8699C45.7019 68.0168 45.436 67.4242 45.2142 67.0921C45.2032 67.0811 44.9098 66.5881 44.3341 65.6134C43.9685 65.0048 43.6252 64.5563 43.3042 64.2678C43.1819 64.2567 43.0932 64.3122 43.0383 64.4342C42.9944 64.5474 42.9444 64.6581 42.8885 64.7659C42.8661 65.1205 42.8883 65.6576 42.9553 66.3774C42.8994 66.4883 42.8716 66.6599 42.8719 66.8921C42.8791 67.1784 42.9013 67.4641 42.9383 67.7481C42.9828 68.1301 43.0051 68.3709 43.0051 68.4704C43.0051 68.4925 42.9893 68.6532 42.9577 68.9524C42.9463 69.0633 42.924 69.2572 42.8909 69.534C42.8577 69.8221 42.8855 70.2262 42.9743 70.7463C43.0624 71.3445 43.1067 71.7598 43.107 71.9924C43.1128 72.2819 43.0621 72.5697 42.9577 72.8398H42.8577C42.8577 72.4635 42.8466 71.8932 42.8245 71.1288C42.736 71.0511 42.664 71.0122 42.6084 71.0122C42.542 71.0122 42.4923 71.2116 42.4591 71.6104C42.4259 72.0091 42.2986 72.2472 42.0771 72.3246C42.0325 72.3028 41.9994 72.3028 41.9771 72.3246C41.9668 72.3427 41.9525 72.3582 41.9352 72.3698C41.9179 72.3814 41.8982 72.3888 41.8775 72.3914C41.8886 70.8189 41.8886 68.4598 41.8775 65.3143C41.8775 65.0043 41.861 64.483 41.8278 63.7502C41.7962 63.0867 41.7804 62.5717 41.7804 62.2051C41.7804 60.9096 41.7749 60.5829 41.7638 61.225C41.7638 60.8142 41.8357 60.5152 41.9794 60.3278C42.0129 59.9957 42.1791 59.8573 42.478 59.9126C42.7548 59.9568 43.0373 60.2886 43.3255 60.9079C43.7363 61.7721 43.9416 62.2096 43.9416 62.2203C43.9857 62.2758 44.0246 62.3032 44.0578 62.3032C44.0803 62.2451 44.0915 62.1832 44.0909 62.1208C44.0872 61.9229 44.0102 61.7334 43.8748 61.589C43.8637 61.4452 43.8006 61.2264 43.6852 60.9326C43.5699 60.6387 43.5118 60.4201 43.5108 60.2766C43.5093 60.1146 43.562 59.9568 43.6606 59.8282C43.804 59.9053 43.9563 60.2126 44.1175 60.7501C44.2786 61.2876 44.4641 61.617 44.6739 61.7383C44.7842 61.7383 44.879 61.6609 44.9583 61.506C44.9583 61.362 44.9109 61.1653 44.8161 60.916C44.7213 60.6667 44.6687 60.4812 44.6583 60.3595C44.6914 60.3485 44.7412 60.3643 44.8076 60.4069C44.8429 60.4349 44.8822 60.4574 44.9241 60.4738C44.9573 60.4738 44.9848 60.4515 45.0071 60.4069C44.9625 60.0414 44.9467 59.8477 44.9597 59.8259C44.9828 59.8003 45.0109 59.7796 45.0423 59.7653C45.0737 59.751 45.1077 59.7432 45.1422 59.7424C45.2194 59.7424 45.3223 59.8007 45.4498 59.9169C45.5773 60.033 45.6683 60.1027 45.7237 60.1245C45.9903 60.5113 46.229 60.9166 46.438 61.3373C46.6592 61.7588 46.8803 62.1742 47.1015 62.5834C47.3119 62.7164 47.5113 62.9766 47.6996 63.364C47.9543 63.8739 48.115 64.173 48.1817 64.2612C48.3144 64.5054 48.4472 64.7435 48.5803 64.9754C48.7572 65.2746 48.9626 65.4132 49.1964 65.3911L49.3789 65.2247C49.3457 64.516 49.307 63.6079 49.2628 62.5004C49.3291 62.3108 49.3402 61.9452 49.2959 61.4037L49.4121 61.2876C49.4332 61.2694 49.4467 61.2439 49.4499 61.2163C49.4531 61.1886 49.4456 61.1607 49.4291 61.1383C49.3182 61.1051 49.2514 61.0108 49.2296 60.8539V60.4885C49.3623 60.4569 49.437 60.3128 49.4538 60.0562C49.4705 59.7996 49.5287 59.6723 49.6282 59.6742C49.6972 59.6767 49.765 59.6928 49.8277 59.7216C49.8277 59.744 49.811 59.9213 49.7775 60.2534C49.678 61.1839 49.6726 62.0312 49.7614 62.7952C49.78 62.7994 49.7993 62.7996 49.818 62.7959C49.8367 62.7922 49.8545 62.7846 49.8701 62.7736C49.8857 62.7626 49.8989 62.7485 49.9087 62.7322C49.9186 62.7158 49.9249 62.6976 49.9273 62.6786C49.9392 62.5961 49.9392 62.5123 49.9273 62.4298C49.9273 62.308 49.9382 62.2303 49.9604 62.1971C50.0043 62.2287 50.0265 62.3366 50.0268 62.5208C50.0271 62.705 50.0881 62.7799 50.2097 62.7454C50.2652 62.6345 50.287 62.4852 50.2761 62.2966V61.8317C50.2872 61.8118 50.3057 61.7972 50.3275 61.7909C50.3494 61.7847 50.3728 61.7874 50.3927 61.7985C50.4124 61.8065 50.4293 61.8203 50.4411 61.8381C50.453 61.8558 50.4592 61.8767 50.459 61.898C50.431 62.0571 50.4151 62.2181 50.4116 62.3796C50.4226 62.5407 50.4531 62.6998 50.5026 62.8535C50.5534 63.0124 50.5841 63.1771 50.5941 63.3436C50.5955 63.4576 50.5728 63.5706 50.5278 63.6754C50.5941 67.3855 50.5941 69.3845 50.5278 69.6723C50.5027 69.7223 50.4655 69.7651 50.4197 69.797C50.3586 69.8444 50.3282 69.8918 50.3282 69.9392C50.3284 69.973 50.334 70.0066 50.3448 70.0387C50.5445 70.1717 50.6055 70.4321 50.5278 70.8198C50.4282 71.2407 50.4393 71.5119 50.5609 71.6336C50.5429 71.8314 50.5395 72.1184 50.5505 72.4948ZM45.7161 66.5637C45.4611 66.0985 45.0902 65.4009 44.6033 64.4707C44.574 64.4498 44.5392 64.4382 44.5033 64.4375C44.3924 64.4375 44.3592 64.5261 44.4037 64.7034C44.4483 64.8806 44.6033 65.1966 44.8687 65.6513C45.2346 66.2488 45.4284 66.57 45.4502 66.6148C45.6054 66.7254 45.694 66.7084 45.7161 66.5637ZM50.6998 60.5832C50.6557 60.506 50.5448 60.478 50.368 60.5003V60.151C50.357 59.9965 50.4069 59.908 50.5178 59.8856C50.6173 59.9188 50.6671 60.0184 50.6671 60.1846C50.6662 60.4169 50.6775 60.5501 50.6998 60.5832Z" fill="black"/>
<path d="M61.4316 60.8989C61.4316 60.9766 61.3842 61.0398 61.2895 61.0885C61.2233 61.1175 61.1639 61.16 61.115 61.2131C59.4761 61.368 58.1858 61.4511 57.2442 61.4624C57.1558 61.573 57.1336 61.7114 57.1779 61.8776C57.2442 62.1437 57.2774 62.2821 57.2774 62.2928C57.2786 62.3457 57.2689 62.3982 57.2489 62.4471C57.229 62.496 57.1991 62.5403 57.1613 62.5772C57.2435 62.7301 57.2836 62.9022 57.2774 63.0758C57.2722 63.2372 57.2564 63.398 57.23 63.5573C57.203 63.7223 57.1871 63.8889 57.1826 64.0559C57.18 64.1987 57.2083 64.3403 57.2655 64.4711C57.166 64.5375 57.1163 64.6151 57.1163 64.7038C57.1163 64.6707 57.155 64.8091 57.2324 65.119C57.2656 65.2739 57.2103 65.3844 57.0665 65.4508C57.0551 65.5393 57.1215 65.6611 57.2655 65.8162C58.0409 65.8162 59.1984 65.7941 60.7378 65.7499L61.0221 65.8494C60.9665 65.9385 60.7561 66.1324 60.3908 66.4309C60.2136 66.4641 60.0862 66.5362 60.0088 66.6471C59.9974 66.8367 59.859 66.9861 59.5936 67.0954C59.1171 67.1176 58.6408 67.1334 58.1646 67.1428C57.3893 67.2206 57.0017 67.3923 57.002 67.658C57.0034 67.7095 57.0147 67.7601 57.0352 67.8073C57.0463 67.9628 57.1237 68.1682 57.2674 68.4235C57.3329 69.0899 57.2937 69.7626 57.1513 70.4169V70.7658C57.1404 70.908 57.0902 70.9819 57.002 70.9819C56.9682 70.9803 56.9346 70.9747 56.902 70.9653C56.8357 70.9985 56.797 71.0871 56.7859 71.2312C56.7736 71.3321 56.7849 71.4345 56.8191 71.5303C56.8632 71.6521 56.9689 71.7156 57.1347 71.7198C57.3006 71.7241 57.4556 71.7336 57.5997 71.745C57.7206 71.7678 57.8428 71.7837 57.9656 71.7924C58.3419 71.7699 58.9067 71.792 59.66 71.8587C59.6377 71.881 59.5685 71.9061 59.4524 71.9336C59.3363 71.9611 59.278 71.9971 59.278 72.0412C59.2775 72.0566 59.2802 72.072 59.2859 72.0864C59.2916 72.1007 59.3002 72.1137 59.3112 72.1246C59.4216 72.1469 59.5406 72.2322 59.668 72.382C59.7955 72.5317 59.9202 72.6118 60.042 72.6227C60.0643 72.6227 60.1472 72.6118 60.2913 72.5896C60.3962 72.5783 60.502 72.5783 60.607 72.5896C60.6464 72.6007 60.681 72.6248 60.705 72.658C60.7291 72.6912 60.7413 72.7315 60.7397 72.7725C59.9864 72.7504 58.9897 72.7725 57.7495 72.8389C56.2211 72.9273 55.2299 72.9716 54.7758 72.9716C54.7534 72.94 54.7534 72.8736 54.7758 72.7725C54.7991 72.6853 54.8157 72.5964 54.8256 72.5066C54.8256 72.4071 54.7702 72.3568 54.6593 72.3568H52.7321C52.6944 72.2907 52.6718 72.2171 52.6658 72.1412C52.6658 72.0639 52.7682 71.999 52.9734 71.9516C53.1786 71.9042 53.2862 71.7938 53.2971 71.6274C53.3287 71.2843 53.3398 70.3706 53.3303 68.8865C53.3413 68.5876 53.3413 68.1502 53.3303 67.5741C53.3192 67.4522 53.2473 67.3718 53.1146 67.3329C52.9819 67.294 52.8544 67.2582 52.7321 67.2253C52.7135 67.2364 52.6925 67.243 52.6708 67.2444C52.6491 67.2458 52.6274 67.242 52.6075 67.2334C52.5896 67.2238 52.5688 67.2211 52.549 67.2257C52.5292 67.2303 52.5117 67.242 52.4999 67.2585C52.5315 67.0812 52.7031 66.9926 53.0146 66.9926C53.4023 66.9926 53.6461 66.9649 53.7459 66.9096C54.0006 66.7656 54.3216 66.6708 54.709 66.6253C55.0417 66.6032 55.3735 66.5809 55.7043 66.5584C55.7251 66.5333 55.74 66.504 55.7482 66.4725C55.7564 66.4409 55.7576 66.408 55.7517 66.376C55.7509 66.3436 55.7388 66.3126 55.7175 66.2883C55.6962 66.264 55.6671 66.2479 55.6351 66.2428C55.292 66.221 54.8158 66.2377 54.2066 66.293C53.5197 66.3594 53.0378 66.3926 52.761 66.3926C52.6505 66.3151 52.4899 66.2046 52.2795 66.0608C52.3459 66.0166 52.5563 65.9834 52.9108 65.9613C53.1987 65.9391 53.3592 65.8339 53.3924 65.6456C53.4148 65.5454 53.4148 65.0802 53.3924 64.2498C53.3699 62.3783 53.3589 61.365 53.3592 61.2098C53.4369 61.2762 53.5921 61.2541 53.8246 61.1435C53.8246 61.6307 53.8633 61.913 53.9407 61.9904C54.0956 61.8688 54.1455 61.6086 54.0905 61.2098C54.0791 61.1545 54.1068 60.7779 54.1734 60.0799C54.4392 60.2572 54.6717 60.273 54.8711 60.1273C54.8711 60.1501 54.8553 61.0694 54.8237 62.8853C54.8445 62.9198 54.8736 62.9485 54.9084 62.9687C54.9432 62.989 54.9825 63.0003 55.0228 63.0014C55.1005 62.9903 55.1394 62.9406 55.1394 62.8521C55.1504 62.2097 55.2002 61.246 55.2887 59.9609C55.4217 60.0936 55.5824 60.0826 55.7707 59.9278C55.837 59.8173 55.9603 59.7505 56.1361 59.7282C56.3688 59.7064 56.5124 59.6808 56.5679 59.6453C56.6788 59.778 56.7892 59.8505 56.8997 59.8614C56.8681 59.8614 57.3554 59.8504 58.3618 59.8282C59.5691 59.8058 60.5603 59.839 61.3354 59.9278C61.3692 59.9885 61.3856 60.0574 61.3828 60.1268C61.3781 60.214 61.3643 60.3004 61.3416 60.3847C61.3186 60.4687 61.3046 60.555 61.2999 60.642C61.2985 60.6925 61.3099 60.7424 61.3329 60.7873C61.3559 60.8322 61.3899 60.8706 61.4316 60.8989ZM55.2849 59.5036C55.274 59.5922 55.2375 59.6254 55.1688 59.6031C55.1149 59.5821 55.0592 59.5663 55.0024 59.5557C54.98 59.4341 55.0022 59.2734 55.0692 59.0737C55.1688 59.1167 55.2406 59.26 55.2849 59.5036ZM56.8632 61.7961C56.8075 61.6413 56.7079 61.5803 56.5641 61.6132C56.5202 61.7904 56.487 62.2279 56.4646 62.9256C56.433 63.6232 56.433 64.0552 56.4646 64.2214C56.5074 64.2704 56.5411 64.3268 56.5641 64.3877L56.747 64.3711C56.7408 63.5113 56.7796 62.6518 56.8632 61.7961Z" fill="black"/>
<path d="M75.0873 59.9353C74.9771 60.4336 74.8 60.8046 74.556 61.0482C74.1453 61.9787 73.7078 62.7097 73.2436 63.2412C73.2436 63.4624 73.1161 63.7089 72.8611 63.9806C72.6062 64.2523 72.4788 64.4933 72.4791 64.7034C72.0684 65.3236 71.8413 65.739 71.7981 65.9494C71.7428 66.193 71.7096 66.7744 71.6985 67.6936V69.6041C71.7046 70.2375 71.6714 70.8707 71.599 71.4999C71.7093 71.8655 71.7203 72.1147 71.6322 72.2474C71.6046 72.2775 71.5713 72.3019 71.5342 72.319C71.497 72.336 71.4569 72.3455 71.416 72.3469H71.1667C71.1243 72.3488 71.0829 72.3603 71.0455 72.3804C71.0082 72.4006 70.9759 72.429 70.9511 72.4635C70.8181 72.5077 70.7405 72.4129 70.7184 72.1791C70.7294 71.7914 70.7136 71.2099 70.671 70.4345C70.5932 70.3349 70.4985 70.3349 70.3866 70.4345L70.3392 70.6174C70.3086 70.5995 70.2745 70.5882 70.2392 70.5842C70.1397 70.5842 70.1176 70.85 70.1728 71.3814C70.2171 71.9464 70.1223 72.2782 69.8885 72.3768C69.8553 72.3663 69.8141 72.3938 69.7638 72.4602C69.7136 72.5265 69.669 72.5877 69.6216 72.6427L69.5885 72.5431C69.5595 72.4292 69.5088 72.3221 69.4392 72.2275C69.4082 72.2467 69.3848 72.276 69.3728 72.3104C69.3946 72.4213 69.3671 72.5431 69.2894 72.6758C69.1899 72.6983 69.1401 72.6817 69.1401 72.6261C69.1401 72.6483 69.151 72.5929 69.1733 72.4602C69.1842 72.3938 69.1652 72.3521 69.115 72.3355C69.031 72.3016 68.9504 72.2599 68.8742 72.2109C68.7633 72.1445 68.708 71.9895 68.7083 71.7459V71.1478C68.6745 70.9481 68.5639 70.8375 68.3766 70.816C68.3194 70.8743 68.2841 70.9504 68.2765 71.0317V71.2833C68.2691 71.3646 68.2339 71.4409 68.177 71.4995C68.1547 71.3995 68.0941 71.4108 67.9941 71.5326C68.0051 71.5772 68.0051 71.7488 67.9941 72.0474C67.9941 72.2581 68.0274 72.4243 68.0941 72.546C68.0272 72.5791 67.9694 72.673 67.9197 72.8303C67.8699 72.9877 67.8002 73.0631 67.7116 73.0631C67.6677 72.919 67.6566 72.703 67.6784 72.4151C67.7002 72.1273 67.6844 71.9113 67.631 71.7672C67.7419 71.59 67.7918 71.4952 67.7808 71.4829L67.6144 71.4995C67.6369 70.392 67.6211 68.7361 67.567 66.5319C65.9613 64.018 64.4604 61.8362 63.0644 59.9865C63.0943 59.9487 63.111 59.9021 63.1118 59.8538C63.1118 59.8093 63.073 59.7538 62.9957 59.6875C62.9184 59.6211 62.8848 59.5548 62.8962 59.4879C63.0044 59.484 63.1112 59.4616 63.2118 59.4216C63.2912 59.3879 63.375 59.3655 63.4607 59.3552C63.5607 59.3552 63.6654 59.4135 63.7763 59.5296C63.8294 59.5864 63.8939 59.6312 63.9655 59.6613C64.0371 59.6913 64.1143 59.7059 64.192 59.7041C64.2421 59.706 64.292 59.6966 64.338 59.6765C64.384 59.6564 64.4248 59.6261 64.4574 59.5879H64.6901C64.7787 59.5879 64.8285 59.5548 64.8399 59.4879C64.8342 59.4725 64.8344 59.4554 64.8406 59.4401C64.8467 59.4248 64.8583 59.4123 64.873 59.405C64.8862 59.3995 64.9003 59.3967 64.9145 59.3967C64.9288 59.3967 64.9428 59.3995 64.956 59.405C65.1456 59.6047 65.2729 59.7044 65.338 59.7041C65.397 59.703 65.4545 59.6858 65.5044 59.6543C65.6813 59.7431 65.8281 59.9036 65.9447 60.1358C66.0613 60.3681 66.6011 61.2487 67.5642 62.7777C67.7971 62.7666 67.9133 62.7443 67.913 62.7109C67.913 62.6669 67.8465 62.6006 67.7135 62.5118C67.614 62.2571 67.4037 61.8584 67.0826 61.3155C66.7945 60.8065 66.6006 60.3967 66.5011 60.0861C66.5556 60.1227 66.6183 60.1455 66.6836 60.1524C66.772 60.1524 66.8468 60.0892 66.9078 59.9628C66.9687 59.8365 67.0213 59.7838 67.0656 59.805C67.0899 59.8998 67.1335 59.9885 67.1936 60.0657C67.2537 60.1429 67.329 60.207 67.4149 60.2539C67.5476 60.2317 67.6139 60.1542 67.6139 60.0211C67.6139 60.0325 67.5642 59.8553 67.4647 59.4894C67.5642 59.4676 67.6805 59.5341 67.8135 59.6889C67.902 59.7998 67.9968 59.9161 68.0979 60.0377C68.4078 60.8909 68.7238 61.7381 69.0458 62.5796C69.466 63.5543 70.0253 64.0417 70.7236 64.0417C70.8895 64.0417 71.0223 63.9311 71.1222 63.71C71.1331 63.6099 71.1942 63.4829 71.3051 63.3275C71.4601 63.1284 71.5483 63.0009 71.571 62.9455C71.7606 62.5467 72.0924 62.0539 72.5663 61.4672C72.6659 61.3673 72.7987 61.2177 72.9649 61.0183C73.0511 60.841 73.1481 60.6691 73.2555 60.5036C73.3939 60.2824 73.6016 59.9445 73.8787 59.4898C73.9558 59.5012 74.0664 59.4819 74.2105 59.432C74.3062 59.3933 74.4069 59.3681 74.5096 59.3571C74.546 59.3563 74.5821 59.365 74.6141 59.3825C74.6462 59.3999 74.673 59.4255 74.692 59.4567C74.7921 59.468 74.8693 59.5344 74.9248 59.6562C74.9712 59.7535 75.0256 59.8469 75.0873 59.9353ZM65.319 60.2671C65.2992 60.1973 65.261 60.134 65.2084 60.084C65.1558 60.034 65.0907 59.999 65.02 59.9827C65.0103 59.991 65.0023 60.0011 64.9966 60.0125C64.9909 60.0239 64.9876 60.0364 64.9868 60.0491C64.9922 60.1017 65.0083 60.1527 65.0342 60.1989C65.0601 60.2448 65.0763 60.2957 65.0816 60.3482C65.1532 60.3619 65.2304 60.3349 65.319 60.2676V60.2671ZM67.9936 65.3508C68.016 65.1296 67.9441 64.8527 67.7779 64.52C67.534 64.0327 67.401 63.7615 67.3789 63.7062C67.2686 63.3848 67.1413 63.2241 66.9969 63.2241C66.9305 63.2241 66.8752 63.2739 66.831 63.3734C67.0632 63.8057 67.3678 64.4759 67.7448 65.384C67.7997 65.4399 67.8832 65.4285 67.9936 65.3513V65.3508Z" fill="black"/>
</g>
<defs>
<clipPath id="clip0_109_16">
<rect width="91" height="91" fill="white"/>
</clipPath>
</defs>
</svg>
