<svg width="61" height="60" viewBox="0 0 61 60" fill="none" xmlns="http://www.w3.org/2000/svg">
<g clip-path="url(#clip0_111_342)">
<path d="M60.4177 3.40657C60.4177 1.81762 59.1578 0.0823975 57.0935 0.0823975H3.9067C1.84571 0.0823975 0.58252 1.80764 0.58252 3.40657V56.5934C0.58252 58.6577 2.31109 59.9176 3.9067 59.9176H57.0935C58.6825 59.9176 60.4177 58.6577 60.4177 56.5934V3.40657ZM50.4452 40.8035C50.4452 42.1798 49.3282 43.2967 47.952 43.2967H32.9932C31.617 43.2967 30.5001 42.1798 30.5001 40.8035C30.5001 39.4273 31.617 38.3104 32.9932 38.3104H47.952C49.3282 38.3104 50.4452 39.4273 50.4452 40.8035ZM11.313 39.0185C10.811 38.5697 10.555 37.9514 10.555 37.3265C10.555 36.0799 11.5656 35.0594 12.8255 35.0594C13.364 35.0594 13.9025 35.2488 14.338 35.6345L16.8178 37.845L22.3359 31.8117C22.788 31.323 23.3963 31.077 24.0113 31.077C25.2778 31.077 26.285 32.0975 26.285 33.3441C26.285 33.8859 26.0889 34.4344 25.69 34.8699L18.6561 42.5587C18.2106 43.0474 17.5957 43.2967 16.9807 43.2967C16.4422 43.2967 15.9003 43.1072 15.4682 42.7216L11.313 39.0185ZM50.4452 30.0066C50.4452 31.3828 49.3282 32.4998 47.952 32.4998H32.9932C31.617 32.4998 30.5001 31.3828 30.5001 30.0066C30.5001 28.6304 31.617 27.5135 32.9932 27.5135H47.952C49.3282 27.5135 50.4452 28.6304 50.4452 30.0066ZM11.313 24.6447V24.6481C10.811 24.1993 10.555 23.5777 10.555 22.956C10.555 21.7062 11.5656 20.689 12.8255 20.689C13.364 20.689 13.9025 20.8784 14.338 21.264L16.8178 23.4713L22.3359 17.4379C22.788 16.9493 23.3963 16.7033 24.0113 16.7033C25.2778 16.7033 26.285 17.7271 26.285 18.9704C26.285 19.5155 26.0889 20.064 25.69 20.4995L18.6561 28.1883C18.2106 28.677 17.5957 28.9229 16.9807 28.9229C16.4422 28.9229 15.9003 28.7335 15.4682 28.3479L11.313 24.6447ZM50.4452 19.1964C50.4452 20.5726 49.3282 21.6895 47.952 21.6895H32.9932C31.617 21.6895 30.5001 20.5726 30.5001 19.1964C30.5001 17.8202 31.617 16.7033 32.9932 16.7033H47.952C49.3282 16.7033 50.4452 17.8202 50.4452 19.1964Z" fill="#FFCC4D"/>
</g>
<defs>
<clipPath id="clip0_111_342">
<rect width="60" height="60" fill="white" transform="translate(0.5)"/>
</clipPath>
</defs>
</svg>
