<svg width="61" height="60" viewBox="0 0 61 60" fill="none" xmlns="http://www.w3.org/2000/svg">
<path fill-rule="evenodd" clip-rule="evenodd" d="M8.475 49.9725L3 50.73L6.985 54.56L6.0125 60L10.885 57.3925L15.76 60L14.7875 54.56L18.7725 50.73L13.2975 49.9725L10.885 45L8.475 49.9725ZM28.475 49.9725L23 50.73L26.985 54.56L26.0125 60L30.885 57.3925L35.76 60L34.7875 54.56L38.7725 50.73L33.2975 49.9725L30.885 45L28.475 49.9725ZM47.7025 49.9725L42.2275 50.73L46.2125 54.56L45.24 60L50.1125 57.3925L54.9875 60L54.015 54.56L58 50.73L52.525 49.9725L50.1125 45L47.7025 49.9725ZM47.38 32.045C41.29 30.64 34.365 29.4075 37.11 24.2225C45.465 8.44 39.325 0 30.5 0C21.5025 0 15.51 8.765 23.89 24.2225C26.7175 29.4375 19.5775 30.67 13.6175 32.045C8.1775 33.3 7.9725 36.0025 7.99 40.73L8 42.5H53L53.0075 40.785C53.0275 36.025 52.8425 33.305 47.38 32.045Z" fill="#FFCC4D"/>
</svg>
