<svg width="60" height="60" viewBox="0 0 60 60" fill="none" xmlns="http://www.w3.org/2000/svg">
<mask id="mask0_117_44" style="mask-type:alpha" maskUnits="userSpaceOnUse" x="1" y="1" width="58" height="58">
<path d="M57 35.4H35.4V57H57V35.4ZM15.15 3L27.3 24.6H3L15.15 3ZM46.2 24.6C49.0643 24.6 51.8114 23.4621 53.8368 21.4368C55.8621 19.4114 57 16.6643 57 13.8C57 10.9357 55.8621 8.18864 53.8368 6.16325C51.8114 4.13785 49.0643 3 46.2 3C43.3357 3 40.5886 4.13785 38.5632 6.16325C36.5379 8.18864 35.4 10.9357 35.4 13.8C35.4 16.6643 36.5379 19.4114 38.5632 21.4368C40.5886 23.4621 43.3357 24.6 46.2 24.6Z" fill="#FFCC4D" stroke="white" stroke-width="4" stroke-linejoin="round"/>
<path d="M3 35.4L24.6 57M24.6 35.4L3 57" stroke="#FFCC4D" stroke-width="4" stroke-linecap="round" stroke-linejoin="round"/>
</mask>
<g mask="url(#mask0_117_44)">
<path d="M0 0H60V60H0V0Z" fill="#FFCC4D"/>
</g>
</svg>
