<svg width="60" height="60" viewBox="0 0 60 60" fill="none" xmlns="http://www.w3.org/2000/svg">
<g clip-path="url(#clip0_4_72)">
<path d="M59.9176 3.40657C59.9176 1.81762 58.6577 0.0823975 56.5934 0.0823975H3.40657C1.34558 0.0823975 0.0823975 1.80764 0.0823975 3.40657V56.5934C0.0823975 58.6577 1.81097 59.9176 3.40657 59.9176H56.5934C58.1823 59.9176 59.9176 58.6577 59.9176 56.5934V3.40657ZM49.945 40.8036C49.945 42.1798 48.8281 43.2967 47.4519 43.2967H32.4931C31.1169 43.2967 30 42.1798 30 40.8036C30 39.4273 31.1169 38.3104 32.4931 38.3104H47.4519C48.8281 38.3104 49.945 39.4273 49.945 40.8036ZM10.8128 39.0185C10.3109 38.5697 10.0549 37.9514 10.0549 37.3265C10.0549 36.0799 11.0655 35.0594 12.3253 35.0594C12.8639 35.0594 13.4024 35.2489 13.8378 35.6345L16.3177 37.845L21.8358 31.8117C22.2879 31.323 22.8962 31.077 23.5112 31.077C24.7777 31.077 25.7849 32.0975 25.7849 33.3441C25.7849 33.8859 25.5888 34.4344 25.1899 34.8699L18.1559 42.5587C17.7105 43.0474 17.0955 43.2967 16.4806 43.2967C15.942 43.2967 15.4002 43.1072 14.9681 42.7216L10.8128 39.0185ZM49.945 30.0066C49.945 31.3828 48.8281 32.4998 47.4519 32.4998H32.4931C31.1169 32.4998 30 31.3828 30 30.0066C30 28.6304 31.1169 27.5135 32.4931 27.5135H47.4519C48.8281 27.5135 49.945 28.6304 49.945 30.0066ZM10.8128 24.6447V24.6481C10.3109 24.1993 10.0549 23.5777 10.0549 22.9561C10.0549 21.7062 11.0655 20.689 12.3253 20.689C12.8639 20.689 13.4024 20.8784 13.8378 21.264L16.3177 23.4713L21.8358 17.4379C22.2879 16.9493 22.8962 16.7033 23.5112 16.7033C24.7777 16.7033 25.7849 17.7271 25.7849 18.9704C25.7849 19.5155 25.5888 20.064 25.1899 20.4995L18.1559 28.1883C17.7105 28.677 17.0955 28.9229 16.4806 28.9229C15.942 28.9229 15.4002 28.7335 14.9681 28.3479L10.8128 24.6447ZM49.945 19.1964C49.945 20.5726 48.8281 21.6895 47.4519 21.6895H32.4931C31.1169 21.6895 30 20.5726 30 19.1964C30 17.8202 31.1169 16.7033 32.4931 16.7033H47.4519C48.8281 16.7033 49.945 17.8202 49.945 19.1964Z" fill="#FFCC4D"/>
</g>
<defs>
<clipPath id="clip0_4_72">
<rect width="60" height="60" fill="white"/>
</clipPath>
</defs>
</svg>
