<svg width="60" height="60" viewBox="0 0 60 60" fill="none" xmlns="http://www.w3.org/2000/svg">
<g clip-path="url(#clip0_4_76)">
<path fill-rule="evenodd" clip-rule="evenodd" d="M7.975 49.9725L2.5 50.73L6.485 54.56L5.5125 60L10.385 57.3925L15.26 60L14.2875 54.56L18.2725 50.73L12.7975 49.9725L10.385 45L7.975 49.9725ZM27.975 49.9725L22.5 50.73L26.485 54.56L25.5125 60L30.385 57.3925L35.26 60L34.2875 54.56L38.2725 50.73L32.7975 49.9725L30.385 45L27.975 49.9725ZM47.2025 49.9725L41.7275 50.73L45.7125 54.56L44.74 60L49.6125 57.3925L54.4875 60L53.515 54.56L57.5 50.73L52.025 49.9725L49.6125 45L47.2025 49.9725ZM46.88 32.045C40.79 30.64 33.865 29.4075 36.61 24.2225C44.965 8.44 38.825 0 30 0C21.0025 0 15.01 8.765 23.39 24.2225C26.2175 29.4375 19.0775 30.67 13.1175 32.045C7.6775 33.3 7.4725 36.0025 7.49 40.73L7.5 42.5H52.5L52.5075 40.785C52.5275 36.025 52.3425 33.305 46.88 32.045Z" fill="#FFCC4D"/>
</g>
<defs>
<clipPath id="clip0_4_76">
<rect width="60" height="60" fill="white"/>
</clipPath>
</defs>
</svg>
