<svg width="60" height="60" viewBox="0 0 60 60" fill="none" xmlns="http://www.w3.org/2000/svg">
<g clip-path="url(#clip0_20_313)">
<path d="M6.2234 6.4834H6.22388H53.7761C55.2183 6.4834 56.6025 7.06207 57.6238 8.09376L57.9743 7.74685L57.6238 8.09376C58.6454 9.12562 59.2201 10.5262 59.2201 11.9876V48.0128C59.2201 49.4742 58.6454 50.8748 57.6238 51.9066C56.6025 52.9383 55.2183 53.517 53.7761 53.517H6.22388C4.78166 53.517 3.39749 52.9383 2.37614 51.9066C1.35462 50.8748 0.779846 49.4742 0.779846 48.0128V11.7374C0.843545 10.3219 1.44469 8.98639 2.45707 8.00825C3.47181 7.02782 4.82124 6.48206 6.2234 6.4834ZM6.50311 17.1808L5.72388 16.6561V17.5955V48.0128V48.5128H6.22388H53.7761H54.2761V48.0128V17.5955V16.6561L53.4969 17.1808L30 32.9999L6.50311 17.1808ZM8.60149 11.4876H6.96386L8.3222 12.4023L29.7207 26.8124L30 27.0005L30.2793 26.8124L51.6778 12.4023L53.0361 11.4876H51.3985H8.60149Z" fill="#FFCC4D" stroke="#FFCC4D"/>
</g>
<defs>
<clipPath id="clip0_20_313">
<rect width="59" height="60" fill="white" transform="translate(0.5)"/>
</clipPath>
</defs>
</svg>
