<svg width="60" height="60" viewBox="0 0 60 60" fill="none" xmlns="http://www.w3.org/2000/svg">
<g clip-path="url(#clip0_20_315)">
<path d="M26.2304 14.6923L17.2184 4.31391C16.1794 3.11794 14.2747 3.12325 13.068 4.32986L5.65696 11.7369C3.45124 13.9402 2.81989 17.2118 4.09591 19.835C11.719 35.5819 24.4484 48.2995 40.2213 55.9269C42.848 57.2 46.1246 56.5701 48.3303 54.3668L55.8106 46.8906C57.0227 45.6814 57.0253 43.7705 55.8159 42.734L45.3733 33.7907C44.2811 32.8552 42.5842 32.9775 41.4894 34.0724L37.8558 37.7029C37.6697 37.8974 37.4249 38.0256 37.1588 38.0679C36.8926 38.1101 36.62 38.0641 36.3826 37.9368C30.4433 34.5245 25.5165 29.6028 22.104 23.6728C21.9762 23.4356 21.9299 23.1631 21.9723 22.8971C22.0146 22.6312 22.1433 22.3864 22.3384 22.2004L25.9614 18.5832C27.0589 17.4829 27.1788 15.782 26.2304 14.6897V14.6923Z" stroke="#FFCC4D" stroke-width="6" stroke-linecap="round" stroke-linejoin="round"/>
</g>
<defs>
<clipPath id="clip0_20_315">
<rect width="60" height="60" fill="white"/>
</clipPath>
</defs>
</svg>
