<svg aria-hidden="true" style="position: absolute; width: 0; height: 0; overflow: hidden;" version="1.1"
    xmlns="http://www.w3.org/2000/svg" xmlns:xlink="http://www.w3.org/1999/xlink">
    <defs>
        <symbol id="icon-instagram" viewBox="0 0 32 32">
            <path
                d="M9.455 0.219c1.693-0.078 2.233-0.095 6.545-0.095s4.852 0.019 6.544 0.095c1.692 0.077 2.846 0.346 3.856 0.738 1.058 0.4 2.018 1.025 2.812 1.833 0.808 0.792 1.432 1.751 1.83 2.81 0.393 1.010 0.661 2.165 0.739 3.854 0.078 1.696 0.095 2.236 0.095 6.547 0 4.313-0.019 4.852-0.095 6.545-0.076 1.689-0.346 2.843-0.739 3.854-0.398 1.060-1.023 2.019-1.83 2.813-0.794 0.808-1.754 1.432-2.812 1.83-1.010 0.393-2.165 0.661-3.854 0.739-1.694 0.078-2.234 0.095-6.547 0.095s-4.852-0.019-6.545-0.095c-1.689-0.076-2.843-0.346-3.854-0.739-1.059-0.398-2.019-1.023-2.813-1.83-0.808-0.793-1.433-1.752-1.832-2.812-0.391-1.010-0.66-2.165-0.738-3.854-0.078-1.696-0.095-2.236-0.095-6.547 0-4.313 0.019-4.852 0.095-6.544s0.346-2.846 0.738-3.856c0.399-1.059 1.025-2.019 1.833-2.812 0.792-0.808 1.751-1.433 2.81-1.832 1.010-0.391 2.165-0.66 3.854-0.738h0.001zM22.415 3.077c-1.674-0.076-2.177-0.092-6.415-0.092s-4.741 0.016-6.415 0.092c-1.549 0.071-2.389 0.329-2.949 0.547-0.74 0.289-1.27 0.631-1.826 1.186-0.527 0.512-0.932 1.136-1.186 1.826-0.218 0.56-0.476 1.4-0.547 2.949-0.076 1.674-0.092 2.176-0.092 6.415s0.016 4.741 0.092 6.415c0.071 1.549 0.329 2.389 0.547 2.949 0.254 0.688 0.66 1.313 1.186 1.826 0.512 0.527 1.137 0.932 1.826 1.186 0.56 0.218 1.4 0.476 2.949 0.547 1.674 0.076 2.175 0.092 6.415 0.092s4.741-0.016 6.415-0.092c1.549-0.071 2.389-0.329 2.949-0.547 0.74-0.289 1.27-0.631 1.826-1.186 0.527-0.512 0.932-1.137 1.186-1.826 0.218-0.56 0.476-1.4 0.547-2.949 0.076-1.674 0.092-2.177 0.092-6.415s-0.016-4.741-0.092-6.415c-0.071-1.549-0.329-2.389-0.547-2.949-0.289-0.74-0.631-1.27-1.186-1.826-0.512-0.527-1.136-0.932-1.826-1.186-0.56-0.218-1.4-0.476-2.949-0.547zM13.972 20.894c1.132 0.471 2.394 0.535 3.568 0.18s2.189-1.107 2.87-2.127c0.682-1.020 0.988-2.245 0.867-3.466s-0.663-2.361-1.531-3.227c-0.554-0.554-1.224-0.977-1.961-1.241s-1.524-0.361-2.303-0.284c-0.779 0.077-1.532 0.326-2.203 0.728s-1.246 0.949-1.681 1.6c-0.435 0.651-0.72 1.39-0.835 2.165s-0.057 1.565 0.17 2.314c0.227 0.749 0.618 1.439 1.143 2.019s1.174 1.037 1.897 1.337zM10.23 10.23c0.758-0.758 1.657-1.359 2.647-1.769s2.051-0.621 3.123-0.621c1.072 0 2.133 0.211 3.123 0.621s1.89 1.011 2.647 1.769c0.758 0.758 1.359 1.657 1.769 2.647s0.621 2.051 0.621 3.123c0 1.072-0.211 2.133-0.621 3.123s-1.011 1.89-1.769 2.647c-1.53 1.53-3.606 2.39-5.77 2.39s-4.24-0.86-5.77-2.39c-1.53-1.53-2.39-3.606-2.39-5.77s0.86-4.24 2.39-5.77zM25.97 9.055c0.188-0.177 0.338-0.39 0.442-0.626s0.16-0.491 0.163-0.749c0.004-0.258-0.044-0.514-0.141-0.754s-0.241-0.457-0.424-0.639c-0.183-0.183-0.4-0.327-0.639-0.424s-0.495-0.145-0.754-0.141-0.513 0.059-0.749 0.163c-0.236 0.104-0.449 0.254-0.626 0.442-0.344 0.365-0.533 0.85-0.526 1.352s0.21 0.981 0.565 1.336 0.834 0.558 1.336 0.565c0.502 0.007 0.987-0.181 1.352-0.526z">
            </path>
        </symbol>
        <symbol id="icon-mail" viewBox="0 0 32 32">
            <path
                d="M28.681 28.809h-25.361c-0.841 0-1.647-0.337-2.242-0.938s-0.928-1.415-0.928-2.264v-19.353c0.036-0.825 0.385-1.604 0.976-2.175s1.377-0.889 2.194-0.888h25.361c0.841 0 1.647 0.337 2.242 0.938s0.928 1.415 0.928 2.264v19.213c0 0.849-0.334 1.664-0.928 2.264s-1.401 0.938-2.242 0.938zM3.319 9.384v16.223h25.361v-16.223l-12.681 8.537-12.681-8.537zM4.587 6.393l11.413 7.685 11.413-7.685h-22.825z">
            </path>
            <path
                d="M3.319 3.724c-0.678-0.001-1.331 0.263-1.823 0.738-0.489 0.473-0.781 1.118-0.813 1.803v19.341c0 0.71 0.279 1.389 0.774 1.889s1.165 0.78 1.863 0.78h25.361c0.698 0 1.368-0.28 1.863-0.78s0.774-1.18 0.774-1.889v-19.213c0-0.71-0.279-1.389-0.774-1.889s-1.165-0.78-1.863-0.78h-25.362zM0.149 6.254c0.036-0.825 0.385-1.604 0.976-2.175s1.377-0.889 2.194-0.888h25.361c0.841 0 1.647 0.337 2.242 0.938s0.928 1.415 0.928 2.264v19.213c0 0.849-0.334 1.664-0.928 2.264s-1.401 0.938-2.242 0.938h-25.361c-0.841 0-1.647-0.337-2.242-0.938s-0.928-1.415-0.928-2.264v-19.353zM2.786 8.382l13.214 8.896 13.214-8.896v17.758h-26.428v-17.758zM16 17.921l-12.681-8.537v16.223h25.361v-16.223l-12.681 8.537zM2.841 5.86l13.159 8.862 13.159-8.862h-26.319zM16 14.079l-11.413-7.685h22.825l-11.413 7.685z">
            </path>
        </symbol>
        <symbol id="icon-phone" viewBox="0 0 32 32">
            <path
                d="M5.838 1.178c1.213-1.212 3.312-1.354 4.553 0.074l4.77 5.493c0.012 0.013 0.025 0.027 0.037 0.041 1.121 1.291 0.886 3.148-0.219 4.255l-0.002 0.002-1.42 1.418c1.525 2.427 3.581 4.48 6.013 6.005l1.427-1.426c1.104-1.105 2.953-1.339 4.244-0.234 0 0-0 0 0 0l5.57 4.77c1.445 1.238 1.304 3.349 0.086 4.564l-3.988 3.986c-1.614 1.613-4.085 2.142-6.153 1.14-0-0-0-0-0.001-0l0.698-1.44-0.697 1.44c-0-0-0-0-0.001-0-8.736-4.224-15.786-11.268-20.009-19.991 0 0 0 0.001 0.001 0.001l1.439-0.7-1.44 0.697c0 0 0 0.001 0.001 0.001-1.005-2.068-0.473-4.537 1.141-6.149l3.953-3.95zM12.701 8.793l-4.626-5.327-3.928 3.926c-0.738 0.738-0.88 1.758-0.525 2.487l0.001 0.003c3.908 8.073 10.435 14.594 18.523 18.506l0.001 0.001c0.734 0.356 1.758 0.213 2.496-0.524 0-0-0 0 0 0l3.962-3.96-5.359-4.59-1.919 1.917c-0.339 0.347-0.782 0.576-1.261 0.652-0.487 0.077-0.986-0.007-1.421-0.24-0.014-0.007-0.027-0.015-0.041-0.023-3.413-1.961-6.244-4.789-8.205-8.197-0.007-0.013-0.015-0.026-0.022-0.039-0.235-0.435-0.32-0.936-0.242-1.424 0.076-0.481 0.306-0.923 0.654-1.261l1.909-1.906z">
            </path>
        </symbol>
        <symbol id="icon-gaming" viewBox="0 0 32 32">
            <path d="M0 0h32v32h-32v-32z"></path>
        </symbol>
        <symbol id="icon-method" viewBox="0 0 33 32">
            <path
                d="M32.223 1.817c0-0.847-0.672-1.773-1.773-1.773h-28.366c-1.099 0-1.773 0.92-1.773 1.773v28.366c0 1.101 0.922 1.773 1.773 1.773h28.366c0.847 0 1.773-0.672 1.773-1.773v-28.366zM26.904 21.762c0 0.734-0.596 1.33-1.33 1.33h-7.978c-0.734 0-1.33-0.596-1.33-1.33s0.596-1.33 1.33-1.33h7.978c0.734 0 1.33 0.596 1.33 1.33zM6.034 20.81c-0.268-0.239-0.404-0.569-0.404-0.902 0-0.665 0.539-1.209 1.211-1.209 0.287 0 0.574 0.101 0.807 0.307l1.323 1.179 2.943-3.218c0.241-0.261 0.566-0.392 0.894-0.392 0.675 0 1.213 0.544 1.213 1.209 0 0.289-0.105 0.581-0.317 0.814l-3.751 4.101c-0.238 0.261-0.566 0.394-0.894 0.394-0.287 0-0.576-0.101-0.807-0.307l-2.216-1.975zM26.904 16.004c0 0.734-0.596 1.33-1.33 1.33h-7.978c-0.734 0-1.33-0.596-1.33-1.33s0.596-1.33 1.33-1.33h7.978c0.734 0 1.33 0.596 1.33 1.33zM6.034 13.144v0.002c-0.268-0.239-0.404-0.571-0.404-0.902 0-0.667 0.539-1.209 1.211-1.209 0.287 0 0.574 0.101 0.807 0.307l1.323 1.177 2.943-3.218c0.241-0.261 0.566-0.392 0.894-0.392 0.675 0 1.213 0.546 1.213 1.209 0 0.291-0.105 0.583-0.317 0.816l-3.751 4.101c-0.238 0.261-0.566 0.392-0.894 0.392-0.287 0-0.576-0.101-0.807-0.307l-2.216-1.975zM26.904 10.238c0 0.734-0.596 1.33-1.33 1.33h-7.978c-0.734 0-1.33-0.596-1.33-1.33s0.596-1.33 1.33-1.33h7.978c0.734 0 1.33 0.596 1.33 1.33z">
            </path>
        </symbol>
        <symbol id="icon-practicality" viewBox="0 0 32 32">
            <path
                d="M0 16c0-4.243 1.686-8.313 4.686-11.314s7.070-4.686 11.314-4.686c4.243 0 8.313 1.686 11.314 4.686s4.686 7.070 4.686 11.314c0 4.243-1.686 8.313-4.686 11.314s-7.070 4.686-11.314 4.686c-4.243 0-8.313-1.686-11.314-4.686s-4.686-7.070-4.686-11.314v0zM15.087 22.848l9.212-11.516-1.664-1.331-7.855 9.815-5.564-4.636-1.365 1.638 7.236 6.029z">
            </path>
        </symbol>
        <symbol id="icon-training" viewBox="0 0 33 32">
            <path
                d="M4.52 26.652l-2.92 0.404 2.125 2.043-0.519 2.901 2.599-1.391 2.6 1.391-0.519-2.901 2.125-2.043-2.92-0.404-1.287-2.652-1.285 2.652zM15.187 26.652l-2.92 0.404 2.125 2.043-0.519 2.901 2.599-1.391 2.6 1.391-0.519-2.901 2.125-2.043-2.92-0.404-1.287-2.652-1.285 2.652zM25.441 26.652l-2.92 0.404 2.125 2.043-0.519 2.901 2.599-1.391 2.6 1.391-0.519-2.901 2.125-2.043-2.92-0.404-1.287-2.652-1.285 2.652zM25.269 17.091c-3.248-0.749-6.941-1.407-5.477-4.172 4.456-8.417 1.181-12.919-3.525-12.919-4.799 0-7.995 4.675-3.525 12.919 1.508 2.781-2.3 3.439-5.479 4.172-2.901 0.669-3.011 2.111-3.001 4.632l0.005 0.944h24l0.004-0.915c0.011-2.539-0.088-3.989-3.001-4.661z">
            </path>
        </symbol>
        <symbol id="icon-btn-close" viewBox="0 0 32 32">
            <path
                d="M23.733 10.304l-1.504-1.504-5.963 5.963-5.963-5.963-1.504 1.504 5.963 5.963-5.963 5.963 1.504 1.504 5.963-5.963 5.963 5.963 1.504-1.504-5.963-5.963 5.963-5.963z">
            </path>
        </symbol>
        <symbol id="icon-btn-open" viewBox="0 0 32 32">
            <path
                d="M6.4 11.733v-2.133h19.2v2.133h-19.2zM6.4 17.067h19.2v-2.133h-19.2v2.133zM6.4 22.4h19.2v-2.133h-19.2v2.133z">
            </path>
        </symbol>

    </defs>
</svg>